<svg version="1.1" xmlns="http://www.w3.org/2000/svg" xmlns:xlink="http://www.w3.org/1999/xlink" width="1869" height="881"><defs/><g><g><path fill="none" stroke="rgb(0,0,0)" paint-order="fill stroke markers" d=" M 19.5 0 L 19.5 881" stroke-opacity="0.12" stroke-miterlimit="10" stroke-dasharray=""/><path fill="none" stroke="rgb(0,0,0)" paint-order="fill stroke markers" d=" M 48.5 0 L 48.5 881" stroke-opacity="0.12" stroke-miterlimit="10" stroke-dasharray=""/><path fill="none" stroke="rgb(0,0,0)" paint-order="fill stroke markers" d=" M 104.5 0 L 104.5 881" stroke-opacity="0.12" stroke-miterlimit="10" stroke-dasharray=""/><path fill="none" stroke="rgb(0,0,0)" paint-order="fill stroke markers" d=" M 132.5 0 L 132.5 881" stroke-opacity="0.12" stroke-miterlimit="10" stroke-dasharray=""/><path fill="none" stroke="rgb(0,0,0)" paint-order="fill stroke markers" d=" M 160.5 0 L 160.5 881" stroke-opacity="0.12" stroke-miterlimit="10" stroke-dasharray=""/><path fill="none" stroke="rgb(0,0,0)" paint-order="fill stroke markers" d=" M 188.5 0 L 188.5 881" stroke-opacity="0.12" stroke-miterlimit="10" stroke-dasharray=""/><path fill="none" stroke="rgb(0,0,0)" paint-order="fill stroke markers" d=" M 216.5 0 L 216.5 881" stroke-opacity="0.12" stroke-miterlimit="10" stroke-dasharray=""/><path fill="none" stroke="rgb(0,0,0)" paint-order="fill stroke markers" d=" M 245.5 0 L 245.5 881" stroke-opacity="0.12" stroke-miterlimit="10" stroke-dasharray=""/><path fill="none" stroke="rgb(0,0,0)" paint-order="fill stroke markers" d=" M 273.5 0 L 273.5 881" stroke-opacity="0.12" stroke-miterlimit="10" stroke-dasharray=""/><path fill="none" stroke="rgb(0,0,0)" paint-order="fill stroke markers" d=" M 301.5 0 L 301.5 881" stroke-opacity="0.12" stroke-miterlimit="10" stroke-dasharray=""/><path fill="none" stroke="rgb(0,0,0)" paint-order="fill stroke markers" d=" M 329.5 0 L 329.5 881" stroke-opacity="0.12" stroke-miterlimit="10" stroke-dasharray=""/><path fill="none" stroke="rgb(0,0,0)" paint-order="fill stroke markers" d=" M 357.5 0 L 357.5 881" stroke-opacity="0.12" stroke-miterlimit="10" stroke-dasharray=""/><path fill="none" stroke="rgb(0,0,0)" paint-order="fill stroke markers" d=" M 385.5 0 L 385.5 881" stroke-opacity="0.12" stroke-miterlimit="10" stroke-dasharray=""/><path fill="none" stroke="rgb(0,0,0)" paint-order="fill stroke markers" d=" M 413.5 0 L 413.5 881" stroke-opacity="0.12" stroke-miterlimit="10" stroke-dasharray=""/><path fill="none" stroke="rgb(0,0,0)" paint-order="fill stroke markers" d=" M 442.5 0 L 442.5 881" stroke-opacity="0.12" stroke-miterlimit="10" stroke-dasharray=""/><path fill="none" stroke="rgb(0,0,0)" paint-order="fill stroke markers" d=" M 470.5 0 L 470.5 881" stroke-opacity="0.12" stroke-miterlimit="10" stroke-dasharray=""/><path fill="none" stroke="rgb(0,0,0)" paint-order="fill stroke markers" d=" M 498.5 0 L 498.5 881" stroke-opacity="0.12" stroke-miterlimit="10" stroke-dasharray=""/><path fill="none" stroke="rgb(0,0,0)" paint-order="fill stroke markers" d=" M 526.5 0 L 526.5 881" stroke-opacity="0.12" stroke-miterlimit="10" stroke-dasharray=""/><path fill="none" stroke="rgb(0,0,0)" paint-order="fill stroke markers" d=" M 554.5 0 L 554.5 881" stroke-opacity="0.12" stroke-miterlimit="10" stroke-dasharray=""/><path fill="none" stroke="rgb(0,0,0)" paint-order="fill stroke markers" d=" M 582.5 0 L 582.5 881" stroke-opacity="0.12" stroke-miterlimit="10" stroke-dasharray=""/><path fill="none" stroke="rgb(0,0,0)" paint-order="fill stroke markers" d=" M 610.5 0 L 610.5 881" stroke-opacity="0.12" stroke-miterlimit="10" stroke-dasharray=""/><path fill="none" stroke="rgb(0,0,0)" paint-order="fill stroke markers" d=" M 639.5 0 L 639.5 881" stroke-opacity="0.12" stroke-miterlimit="10" stroke-dasharray=""/><path fill="none" stroke="rgb(0,0,0)" paint-order="fill stroke markers" d=" M 667.5 0 L 667.5 881" stroke-opacity="0.12" stroke-miterlimit="10" stroke-dasharray=""/><path fill="none" stroke="rgb(0,0,0)" paint-order="fill stroke markers" d=" M 695.5 0 L 695.5 881" stroke-opacity="0.12" stroke-miterlimit="10" stroke-dasharray=""/><path fill="none" stroke="rgb(0,0,0)" paint-order="fill stroke markers" d=" M 723.5 0 L 723.5 881" stroke-opacity="0.12" stroke-miterlimit="10" stroke-dasharray=""/><path fill="none" stroke="rgb(0,0,0)" paint-order="fill stroke markers" d=" M 751.5 0 L 751.5 881" stroke-opacity="0.12" stroke-miterlimit="10" stroke-dasharray=""/><path fill="none" stroke="rgb(0,0,0)" paint-order="fill stroke markers" d=" M 779.5 0 L 779.5 881" stroke-opacity="0.12" stroke-miterlimit="10" stroke-dasharray=""/><path fill="none" stroke="rgb(0,0,0)" paint-order="fill stroke markers" d=" M 807.5 0 L 807.5 881" stroke-opacity="0.12" stroke-miterlimit="10" stroke-dasharray=""/><path fill="none" stroke="rgb(0,0,0)" paint-order="fill stroke markers" d=" M 836.5 0 L 836.5 881" stroke-opacity="0.12" stroke-miterlimit="10" stroke-dasharray=""/><path fill="none" stroke="rgb(0,0,0)" paint-order="fill stroke markers" d=" M 864.5 0 L 864.5 881" stroke-opacity="0.12" stroke-miterlimit="10" stroke-dasharray=""/><path fill="none" stroke="rgb(0,0,0)" paint-order="fill stroke markers" d=" M 892.5 0 L 892.5 881" stroke-opacity="0.12" stroke-miterlimit="10" stroke-dasharray=""/><path fill="none" stroke="rgb(0,0,0)" paint-order="fill stroke markers" d=" M 920.5 0 L 920.5 881" stroke-opacity="0.12" stroke-miterlimit="10" stroke-dasharray=""/><path fill="none" stroke="rgb(0,0,0)" paint-order="fill stroke markers" d=" M 948.5 0 L 948.5 881" stroke-opacity="0.12" stroke-miterlimit="10" stroke-dasharray=""/><path fill="none" stroke="rgb(0,0,0)" paint-order="fill stroke markers" d=" M 976.5 0 L 976.5 881" stroke-opacity="0.12" stroke-miterlimit="10" stroke-dasharray=""/><path fill="none" stroke="rgb(0,0,0)" paint-order="fill stroke markers" d=" M 1004.5 0 L 1004.5 881" stroke-opacity="0.12" stroke-miterlimit="10" stroke-dasharray=""/><path fill="none" stroke="rgb(0,0,0)" paint-order="fill stroke markers" d=" M 1033.5 0 L 1033.5 881" stroke-opacity="0.12" stroke-miterlimit="10" stroke-dasharray=""/><path fill="none" stroke="rgb(0,0,0)" paint-order="fill stroke markers" d=" M 1061.5 0 L 1061.5 881" stroke-opacity="0.12" stroke-miterlimit="10" stroke-dasharray=""/><path fill="none" stroke="rgb(0,0,0)" paint-order="fill stroke markers" d=" M 1089.5 0 L 1089.5 881" stroke-opacity="0.12" stroke-miterlimit="10" stroke-dasharray=""/><path fill="none" stroke="rgb(0,0,0)" paint-order="fill stroke markers" d=" M 1117.5 0 L 1117.5 881" stroke-opacity="0.12" stroke-miterlimit="10" stroke-dasharray=""/><path fill="none" stroke="rgb(0,0,0)" paint-order="fill stroke markers" d=" M 1145.5 0 L 1145.5 881" stroke-opacity="0.12" stroke-miterlimit="10" stroke-dasharray=""/><path fill="none" stroke="rgb(0,0,0)" paint-order="fill stroke markers" d=" M 1173.5 0 L 1173.5 881" stroke-opacity="0.12" stroke-miterlimit="10" stroke-dasharray=""/><path fill="none" stroke="rgb(0,0,0)" paint-order="fill stroke markers" d=" M 1201.5 0 L 1201.5 881" stroke-opacity="0.12" stroke-miterlimit="10" stroke-dasharray=""/><path fill="none" stroke="rgb(0,0,0)" paint-order="fill stroke markers" d=" M 1230.5 0 L 1230.5 881" stroke-opacity="0.12" stroke-miterlimit="10" stroke-dasharray=""/><path fill="none" stroke="rgb(0,0,0)" paint-order="fill stroke markers" d=" M 1258.5 0 L 1258.5 881" stroke-opacity="0.12" stroke-miterlimit="10" stroke-dasharray=""/><path fill="none" stroke="rgb(0,0,0)" paint-order="fill stroke markers" d=" M 1286.5 0 L 1286.5 881" stroke-opacity="0.12" stroke-miterlimit="10" stroke-dasharray=""/><path fill="none" stroke="rgb(0,0,0)" paint-order="fill stroke markers" d=" M 1314.5 0 L 1314.5 881" stroke-opacity="0.12" stroke-miterlimit="10" stroke-dasharray=""/><path fill="none" stroke="rgb(0,0,0)" paint-order="fill stroke markers" d=" M 1342.5 0 L 1342.5 881" stroke-opacity="0.12" stroke-miterlimit="10" stroke-dasharray=""/><path fill="none" stroke="rgb(0,0,0)" paint-order="fill stroke markers" d=" M 1370.5 0 L 1370.5 881" stroke-opacity="0.12" stroke-miterlimit="10" stroke-dasharray=""/><path fill="none" stroke="rgb(0,0,0)" paint-order="fill stroke markers" d=" M 1398.5 0 L 1398.5 881" stroke-opacity="0.12" stroke-miterlimit="10" stroke-dasharray=""/><path fill="none" stroke="rgb(0,0,0)" paint-order="fill stroke markers" d=" M 1427.5 0 L 1427.5 881" stroke-opacity="0.12" stroke-miterlimit="10" stroke-dasharray=""/><path fill="none" stroke="rgb(0,0,0)" paint-order="fill stroke markers" d=" M 1455.5 0 L 1455.5 881" stroke-opacity="0.12" stroke-miterlimit="10" stroke-dasharray=""/><path fill="none" stroke="rgb(0,0,0)" paint-order="fill stroke markers" d=" M 1483.5 0 L 1483.5 881" stroke-opacity="0.12" stroke-miterlimit="10" stroke-dasharray=""/><path fill="none" stroke="rgb(0,0,0)" paint-order="fill stroke markers" d=" M 1511.5 0 L 1511.5 881" stroke-opacity="0.12" stroke-miterlimit="10" stroke-dasharray=""/><path fill="none" stroke="rgb(0,0,0)" paint-order="fill stroke markers" d=" M 1539.5 0 L 1539.5 881" stroke-opacity="0.12" stroke-miterlimit="10" stroke-dasharray=""/><path fill="none" stroke="rgb(0,0,0)" paint-order="fill stroke markers" d=" M 1567.5 0 L 1567.5 881" stroke-opacity="0.12" stroke-miterlimit="10" stroke-dasharray=""/><path fill="none" stroke="rgb(0,0,0)" paint-order="fill stroke markers" d=" M 1595.5 0 L 1595.5 881" stroke-opacity="0.12" stroke-miterlimit="10" stroke-dasharray=""/><path fill="none" stroke="rgb(0,0,0)" paint-order="fill stroke markers" d=" M 1624.5 0 L 1624.5 881" stroke-opacity="0.12" stroke-miterlimit="10" stroke-dasharray=""/><path fill="none" stroke="rgb(0,0,0)" paint-order="fill stroke markers" d=" M 1652.5 0 L 1652.5 881" stroke-opacity="0.12" stroke-miterlimit="10" stroke-dasharray=""/><path fill="none" stroke="rgb(0,0,0)" paint-order="fill stroke markers" d=" M 1680.5 0 L 1680.5 881" stroke-opacity="0.12" stroke-miterlimit="10" stroke-dasharray=""/><path fill="none" stroke="rgb(0,0,0)" paint-order="fill stroke markers" d=" M 1708.5 0 L 1708.5 881" stroke-opacity="0.12" stroke-miterlimit="10" stroke-dasharray=""/><path fill="none" stroke="rgb(0,0,0)" paint-order="fill stroke markers" d=" M 1736.5 0 L 1736.5 881" stroke-opacity="0.12" stroke-miterlimit="10" stroke-dasharray=""/><path fill="none" stroke="rgb(0,0,0)" paint-order="fill stroke markers" d=" M 1764.5 0 L 1764.5 881" stroke-opacity="0.12" stroke-miterlimit="10" stroke-dasharray=""/><path fill="none" stroke="rgb(0,0,0)" paint-order="fill stroke markers" d=" M 1793.5 0 L 1793.5 881" stroke-opacity="0.12" stroke-miterlimit="10" stroke-dasharray=""/><path fill="none" stroke="rgb(0,0,0)" paint-order="fill stroke markers" d=" M 1821.5 0 L 1821.5 881" stroke-opacity="0.12" stroke-miterlimit="10" stroke-dasharray=""/><path fill="none" stroke="rgb(0,0,0)" paint-order="fill stroke markers" d=" M 1849.5 0 L 1849.5 881" stroke-opacity="0.12" stroke-miterlimit="10" stroke-dasharray=""/><path fill="none" stroke="rgb(0,0,0)" paint-order="fill stroke markers" d=" M 0 826.5 L 1869 826.5" stroke-opacity="0.12" stroke-miterlimit="10" stroke-dasharray=""/><path fill="none" stroke="rgb(0,0,0)" paint-order="fill stroke markers" d=" M 0 798.5 L 1869 798.5" stroke-opacity="0.12" stroke-miterlimit="10" stroke-dasharray=""/><path fill="none" stroke="rgb(0,0,0)" paint-order="fill stroke markers" d=" M 0 771.5 L 1869 771.5" stroke-opacity="0.12" stroke-miterlimit="10" stroke-dasharray=""/><path fill="none" stroke="rgb(0,0,0)" paint-order="fill stroke markers" d=" M 0 743.5 L 1869 743.5" stroke-opacity="0.12" stroke-miterlimit="10" stroke-dasharray=""/><path fill="none" stroke="rgb(0,0,0)" paint-order="fill stroke markers" d=" M 0 716.5 L 1869 716.5" stroke-opacity="0.12" stroke-miterlimit="10" stroke-dasharray=""/><path fill="none" stroke="rgb(0,0,0)" paint-order="fill stroke markers" d=" M 0 689.5 L 1869 689.5" stroke-opacity="0.12" stroke-miterlimit="10" stroke-dasharray=""/><path fill="none" stroke="rgb(0,0,0)" paint-order="fill stroke markers" d=" M 0 661.5 L 1869 661.5" stroke-opacity="0.12" stroke-miterlimit="10" stroke-dasharray=""/><path fill="none" stroke="rgb(0,0,0)" paint-order="fill stroke markers" d=" M 0 634.5 L 1869 634.5" stroke-opacity="0.12" stroke-miterlimit="10" stroke-dasharray=""/><path fill="none" stroke="rgb(0,0,0)" paint-order="fill stroke markers" d=" M 0 606.5 L 1869 606.5" stroke-opacity="0.12" stroke-miterlimit="10" stroke-dasharray=""/><path fill="none" stroke="rgb(0,0,0)" paint-order="fill stroke markers" d=" M 0 579.5 L 1869 579.5" stroke-opacity="0.12" stroke-miterlimit="10" stroke-dasharray=""/><path fill="none" stroke="rgb(0,0,0)" paint-order="fill stroke markers" d=" M 0 551.5 L 1869 551.5" stroke-opacity="0.12" stroke-miterlimit="10" stroke-dasharray=""/><path fill="none" stroke="rgb(0,0,0)" paint-order="fill stroke markers" d=" M 0 524.5 L 1869 524.5" stroke-opacity="0.12" stroke-miterlimit="10" stroke-dasharray=""/><path fill="none" stroke="rgb(0,0,0)" paint-order="fill stroke markers" d=" M 0 496.5 L 1869 496.5" stroke-opacity="0.12" stroke-miterlimit="10" stroke-dasharray=""/><path fill="none" stroke="rgb(0,0,0)" paint-order="fill stroke markers" d=" M 0 469.5 L 1869 469.5" stroke-opacity="0.12" stroke-miterlimit="10" stroke-dasharray=""/><path fill="none" stroke="rgb(0,0,0)" paint-order="fill stroke markers" d=" M 0 442.5 L 1869 442.5" stroke-opacity="0.12" stroke-miterlimit="10" stroke-dasharray=""/><path fill="none" stroke="rgb(0,0,0)" paint-order="fill stroke markers" d=" M 0 414.5 L 1869 414.5" stroke-opacity="0.12" stroke-miterlimit="10" stroke-dasharray=""/><path fill="none" stroke="rgb(0,0,0)" paint-order="fill stroke markers" d=" M 0 387.5 L 1869 387.5" stroke-opacity="0.12" stroke-miterlimit="10" stroke-dasharray=""/><path fill="none" stroke="rgb(0,0,0)" paint-order="fill stroke markers" d=" M 0 359.5 L 1869 359.5" stroke-opacity="0.12" stroke-miterlimit="10" stroke-dasharray=""/><path fill="none" stroke="rgb(0,0,0)" paint-order="fill stroke markers" d=" M 0 332.5 L 1869 332.5" stroke-opacity="0.12" stroke-miterlimit="10" stroke-dasharray=""/><path fill="none" stroke="rgb(0,0,0)" paint-order="fill stroke markers" d=" M 0 304.5 L 1869 304.5" stroke-opacity="0.12" stroke-miterlimit="10" stroke-dasharray=""/><path fill="none" stroke="rgb(0,0,0)" paint-order="fill stroke markers" d=" M 0 277.5 L 1869 277.5" stroke-opacity="0.12" stroke-miterlimit="10" stroke-dasharray=""/><path fill="none" stroke="rgb(0,0,0)" paint-order="fill stroke markers" d=" M 0 250.5 L 1869 250.5" stroke-opacity="0.12" stroke-miterlimit="10" stroke-dasharray=""/><path fill="none" stroke="rgb(0,0,0)" paint-order="fill stroke markers" d=" M 0 222.5 L 1869 222.5" stroke-opacity="0.12" stroke-miterlimit="10" stroke-dasharray=""/><path fill="none" stroke="rgb(0,0,0)" paint-order="fill stroke markers" d=" M 0 195.5 L 1869 195.5" stroke-opacity="0.12" stroke-miterlimit="10" stroke-dasharray=""/><path fill="none" stroke="rgb(0,0,0)" paint-order="fill stroke markers" d=" M 0 167.5 L 1869 167.5" stroke-opacity="0.12" stroke-miterlimit="10" stroke-dasharray=""/><path fill="none" stroke="rgb(0,0,0)" paint-order="fill stroke markers" d=" M 0 140.5 L 1869 140.5" stroke-opacity="0.12" stroke-miterlimit="10" stroke-dasharray=""/><path fill="none" stroke="rgb(0,0,0)" paint-order="fill stroke markers" d=" M 0 112.5 L 1869 112.5" stroke-opacity="0.12" stroke-miterlimit="10" stroke-dasharray=""/><path fill="none" stroke="rgb(0,0,0)" paint-order="fill stroke markers" d=" M 0 85.5 L 1869 85.5" stroke-opacity="0.12" stroke-miterlimit="10" stroke-dasharray=""/><path fill="none" stroke="rgb(0,0,0)" paint-order="fill stroke markers" d=" M 0 57.5 L 1869 57.5" stroke-opacity="0.12" stroke-miterlimit="10" stroke-dasharray=""/><path fill="none" stroke="rgb(0,0,0)" paint-order="fill stroke markers" d=" M 0 30.5 L 1869 30.5" stroke-opacity="0.12" stroke-miterlimit="10" stroke-dasharray=""/><path fill="none" stroke="rgb(0,0,0)" paint-order="fill stroke markers" d=" M 0 3.5 L 1869 3.5" stroke-opacity="0.12" stroke-miterlimit="10" stroke-dasharray=""/><path fill="none" stroke="rgb(0,0,0)" paint-order="fill stroke markers" d=" M 188.5 0 L 188.5 881" stroke-opacity="0.31818181818181823" stroke-miterlimit="10" stroke-dasharray=""/><path fill="none" stroke="rgb(0,0,0)" paint-order="fill stroke markers" d=" M 301.5 0 L 301.5 881" stroke-opacity="0.31818181818181823" stroke-miterlimit="10" stroke-dasharray=""/><path fill="none" stroke="rgb(0,0,0)" paint-order="fill stroke markers" d=" M 413.5 0 L 413.5 881" stroke-opacity="0.31818181818181823" stroke-miterlimit="10" stroke-dasharray=""/><path fill="none" stroke="rgb(0,0,0)" paint-order="fill stroke markers" d=" M 526.5 0 L 526.5 881" stroke-opacity="0.31818181818181823" stroke-miterlimit="10" stroke-dasharray=""/><path fill="none" stroke="rgb(0,0,0)" paint-order="fill stroke markers" d=" M 639.5 0 L 639.5 881" stroke-opacity="0.31818181818181823" stroke-miterlimit="10" stroke-dasharray=""/><path fill="none" stroke="rgb(0,0,0)" paint-order="fill stroke markers" d=" M 751.5 0 L 751.5 881" stroke-opacity="0.31818181818181823" stroke-miterlimit="10" stroke-dasharray=""/><path fill="none" stroke="rgb(0,0,0)" paint-order="fill stroke markers" d=" M 864.5 0 L 864.5 881" stroke-opacity="0.31818181818181823" stroke-miterlimit="10" stroke-dasharray=""/><path fill="none" stroke="rgb(0,0,0)" paint-order="fill stroke markers" d=" M 976.5 0 L 976.5 881" stroke-opacity="0.31818181818181823" stroke-miterlimit="10" stroke-dasharray=""/><path fill="none" stroke="rgb(0,0,0)" paint-order="fill stroke markers" d=" M 1089.5 0 L 1089.5 881" stroke-opacity="0.31818181818181823" stroke-miterlimit="10" stroke-dasharray=""/><path fill="none" stroke="rgb(0,0,0)" paint-order="fill stroke markers" d=" M 1201.5 0 L 1201.5 881" stroke-opacity="0.31818181818181823" stroke-miterlimit="10" stroke-dasharray=""/><path fill="none" stroke="rgb(0,0,0)" paint-order="fill stroke markers" d=" M 1314.5 0 L 1314.5 881" stroke-opacity="0.31818181818181823" stroke-miterlimit="10" stroke-dasharray=""/><path fill="none" stroke="rgb(0,0,0)" paint-order="fill stroke markers" d=" M 1427.5 0 L 1427.5 881" stroke-opacity="0.31818181818181823" stroke-miterlimit="10" stroke-dasharray=""/><path fill="none" stroke="rgb(0,0,0)" paint-order="fill stroke markers" d=" M 1539.5 0 L 1539.5 881" stroke-opacity="0.31818181818181823" stroke-miterlimit="10" stroke-dasharray=""/><path fill="none" stroke="rgb(0,0,0)" paint-order="fill stroke markers" d=" M 1652.5 0 L 1652.5 881" stroke-opacity="0.31818181818181823" stroke-miterlimit="10" stroke-dasharray=""/><path fill="none" stroke="rgb(0,0,0)" paint-order="fill stroke markers" d=" M 1764.5 0 L 1764.5 881" stroke-opacity="0.31818181818181823" stroke-miterlimit="10" stroke-dasharray=""/><path fill="none" stroke="rgb(0,0,0)" paint-order="fill stroke markers" d=" M 0 716.5 L 1869 716.5" stroke-opacity="0.31818181818181823" stroke-miterlimit="10" stroke-dasharray=""/><path fill="none" stroke="rgb(0,0,0)" paint-order="fill stroke markers" d=" M 0 579.5 L 1869 579.5" stroke-opacity="0.31818181818181823" stroke-miterlimit="10" stroke-dasharray=""/><path fill="none" stroke="rgb(0,0,0)" paint-order="fill stroke markers" d=" M 0 442.5 L 1869 442.5" stroke-opacity="0.31818181818181823" stroke-miterlimit="10" stroke-dasharray=""/><path fill="none" stroke="rgb(0,0,0)" paint-order="fill stroke markers" d=" M 0 304.5 L 1869 304.5" stroke-opacity="0.31818181818181823" stroke-miterlimit="10" stroke-dasharray=""/><path fill="none" stroke="rgb(0,0,0)" paint-order="fill stroke markers" d=" M 0 167.5 L 1869 167.5" stroke-opacity="0.31818181818181823" stroke-miterlimit="10" stroke-dasharray=""/><path fill="none" stroke="rgb(0,0,0)" paint-order="fill stroke markers" d=" M 0 30.5 L 1869 30.5" stroke-opacity="0.31818181818181823" stroke-miterlimit="10" stroke-dasharray=""/></g><g><path fill="none" stroke="rgb(0,0,0)" paint-order="fill stroke markers" d=" M 75.75 0 L 75.75 881" stroke-opacity="0.9" stroke-miterlimit="10" stroke-width="1.5" stroke-dasharray=""/></g><g><path fill="none" stroke="rgb(0,0,0)" paint-order="fill stroke markers" d=" M 0 853.75 L 1869 853.75" stroke-opacity="0.9" stroke-miterlimit="10" stroke-width="1.5" stroke-dasharray=""/></g><g><g><text fill="none" stroke="#ffffff" font-family="Arial" font-size="14px" font-style="normal" font-weight="normal" text-decoration="normal" x="67.27205273058155" y="869.5009471150502" text-anchor="middle" dominant-baseline="alphabetic" stroke-miterlimit="2" stroke-width="3" stroke-dasharray="">0</text><text fill="#000000" stroke="none" font-family="Arial" font-size="14px" font-style="normal" font-weight="normal" text-decoration="normal" x="67.27205273058155" y="869.5009471150502" text-anchor="middle" dominant-baseline="alphabetic">0</text></g><g><text fill="none" stroke="#ffffff" font-family="Arial" font-size="14px" font-style="normal" font-weight="normal" text-decoration="normal" x="188.743484087236" y="869.5009471150502" text-anchor="middle" dominant-baseline="alphabetic" stroke-miterlimit="2" stroke-width="3" stroke-dasharray="">2</text><text fill="#000000" stroke="none" font-family="Arial" font-size="14px" font-style="normal" font-weight="normal" text-decoration="normal" x="188.743484087236" y="869.5009471150502" text-anchor="middle" dominant-baseline="alphabetic">2</text></g><g><text fill="none" stroke="#ffffff" font-family="Arial" font-size="14px" font-style="normal" font-weight="normal" text-decoration="normal" x="301.32324879311835" y="869.5009471150502" text-anchor="middle" dominant-baseline="alphabetic" stroke-miterlimit="2" stroke-width="3" stroke-dasharray="">4</text><text fill="#000000" stroke="none" font-family="Arial" font-size="14px" font-style="normal" font-weight="normal" text-decoration="normal" x="301.32324879311835" y="869.5009471150502" text-anchor="middle" dominant-baseline="alphabetic">4</text></g><g><text fill="none" stroke="#ffffff" font-family="Arial" font-size="14px" font-style="normal" font-weight="normal" text-decoration="normal" x="413.90301349900074" y="869.5009471150502" text-anchor="middle" dominant-baseline="alphabetic" stroke-miterlimit="2" stroke-width="3" stroke-dasharray="">6</text><text fill="#000000" stroke="none" font-family="Arial" font-size="14px" font-style="normal" font-weight="normal" text-decoration="normal" x="413.90301349900074" y="869.5009471150502" text-anchor="middle" dominant-baseline="alphabetic">6</text></g><g><text fill="none" stroke="#ffffff" font-family="Arial" font-size="14px" font-style="normal" font-weight="normal" text-decoration="normal" x="526.4827782048831" y="869.5009471150502" text-anchor="middle" dominant-baseline="alphabetic" stroke-miterlimit="2" stroke-width="3" stroke-dasharray="">8</text><text fill="#000000" stroke="none" font-family="Arial" font-size="14px" font-style="normal" font-weight="normal" text-decoration="normal" x="526.4827782048831" y="869.5009471150502" text-anchor="middle" dominant-baseline="alphabetic">8</text></g><g><text fill="none" stroke="#ffffff" font-family="Arial" font-size="14px" font-style="normal" font-weight="normal" text-decoration="normal" x="639.0625429107654" y="869.5009471150502" text-anchor="middle" dominant-baseline="alphabetic" stroke-miterlimit="2" stroke-width="3" stroke-dasharray="">10</text><text fill="#000000" stroke="none" font-family="Arial" font-size="14px" font-style="normal" font-weight="normal" text-decoration="normal" x="639.0625429107654" y="869.5009471150502" text-anchor="middle" dominant-baseline="alphabetic">10</text></g><g><text fill="none" stroke="#ffffff" font-family="Arial" font-size="14px" font-style="normal" font-weight="normal" text-decoration="normal" x="751.6423076166478" y="869.5009471150502" text-anchor="middle" dominant-baseline="alphabetic" stroke-miterlimit="2" stroke-width="3" stroke-dasharray="">12</text><text fill="#000000" stroke="none" font-family="Arial" font-size="14px" font-style="normal" font-weight="normal" text-decoration="normal" x="751.6423076166478" y="869.5009471150502" text-anchor="middle" dominant-baseline="alphabetic">12</text></g><g><text fill="none" stroke="#ffffff" font-family="Arial" font-size="14px" font-style="normal" font-weight="normal" text-decoration="normal" x="864.2220723225302" y="869.5009471150502" text-anchor="middle" dominant-baseline="alphabetic" stroke-miterlimit="2" stroke-width="3" stroke-dasharray="">14</text><text fill="#000000" stroke="none" font-family="Arial" font-size="14px" font-style="normal" font-weight="normal" text-decoration="normal" x="864.2220723225302" y="869.5009471150502" text-anchor="middle" dominant-baseline="alphabetic">14</text></g><g><text fill="none" stroke="#ffffff" font-family="Arial" font-size="14px" font-style="normal" font-weight="normal" text-decoration="normal" x="976.8018370284125" y="869.5009471150502" text-anchor="middle" dominant-baseline="alphabetic" stroke-miterlimit="2" stroke-width="3" stroke-dasharray="">16</text><text fill="#000000" stroke="none" font-family="Arial" font-size="14px" font-style="normal" font-weight="normal" text-decoration="normal" x="976.8018370284125" y="869.5009471150502" text-anchor="middle" dominant-baseline="alphabetic">16</text></g><g><text fill="none" stroke="#ffffff" font-family="Arial" font-size="14px" font-style="normal" font-weight="normal" text-decoration="normal" x="1089.3816017342947" y="869.5009471150502" text-anchor="middle" dominant-baseline="alphabetic" stroke-miterlimit="2" stroke-width="3" stroke-dasharray="">18</text><text fill="#000000" stroke="none" font-family="Arial" font-size="14px" font-style="normal" font-weight="normal" text-decoration="normal" x="1089.3816017342947" y="869.5009471150502" text-anchor="middle" dominant-baseline="alphabetic">18</text></g><g><text fill="none" stroke="#ffffff" font-family="Arial" font-size="14px" font-style="normal" font-weight="normal" text-decoration="normal" x="1201.9613664401772" y="869.5009471150502" text-anchor="middle" dominant-baseline="alphabetic" stroke-miterlimit="2" stroke-width="3" stroke-dasharray="">20</text><text fill="#000000" stroke="none" font-family="Arial" font-size="14px" font-style="normal" font-weight="normal" text-decoration="normal" x="1201.9613664401772" y="869.5009471150502" text-anchor="middle" dominant-baseline="alphabetic">20</text></g><g><text fill="none" stroke="#ffffff" font-family="Arial" font-size="14px" font-style="normal" font-weight="normal" text-decoration="normal" x="1314.5411311460593" y="869.5009471150502" text-anchor="middle" dominant-baseline="alphabetic" stroke-miterlimit="2" stroke-width="3" stroke-dasharray="">22</text><text fill="#000000" stroke="none" font-family="Arial" font-size="14px" font-style="normal" font-weight="normal" text-decoration="normal" x="1314.5411311460593" y="869.5009471150502" text-anchor="middle" dominant-baseline="alphabetic">22</text></g><g><text fill="none" stroke="#ffffff" font-family="Arial" font-size="14px" font-style="normal" font-weight="normal" text-decoration="normal" x="1427.120895851942" y="869.5009471150502" text-anchor="middle" dominant-baseline="alphabetic" stroke-miterlimit="2" stroke-width="3" stroke-dasharray="">24</text><text fill="#000000" stroke="none" font-family="Arial" font-size="14px" font-style="normal" font-weight="normal" text-decoration="normal" x="1427.120895851942" y="869.5009471150502" text-anchor="middle" dominant-baseline="alphabetic">24</text></g><g><text fill="none" stroke="#ffffff" font-family="Arial" font-size="14px" font-style="normal" font-weight="normal" text-decoration="normal" x="1539.7006605578244" y="869.5009471150502" text-anchor="middle" dominant-baseline="alphabetic" stroke-miterlimit="2" stroke-width="3" stroke-dasharray="">26</text><text fill="#000000" stroke="none" font-family="Arial" font-size="14px" font-style="normal" font-weight="normal" text-decoration="normal" x="1539.7006605578244" y="869.5009471150502" text-anchor="middle" dominant-baseline="alphabetic">26</text></g><g><text fill="none" stroke="#ffffff" font-family="Arial" font-size="14px" font-style="normal" font-weight="normal" text-decoration="normal" x="1652.2804252637065" y="869.5009471150502" text-anchor="middle" dominant-baseline="alphabetic" stroke-miterlimit="2" stroke-width="3" stroke-dasharray="">28</text><text fill="#000000" stroke="none" font-family="Arial" font-size="14px" font-style="normal" font-weight="normal" text-decoration="normal" x="1652.2804252637065" y="869.5009471150502" text-anchor="middle" dominant-baseline="alphabetic">28</text></g><g><text fill="none" stroke="#ffffff" font-family="Arial" font-size="14px" font-style="normal" font-weight="normal" text-decoration="normal" x="1764.860189969589" y="869.5009471150502" text-anchor="middle" dominant-baseline="alphabetic" stroke-miterlimit="2" stroke-width="3" stroke-dasharray="">30</text><text fill="#000000" stroke="none" font-family="Arial" font-size="14px" font-style="normal" font-weight="normal" text-decoration="normal" x="1764.860189969589" y="869.5009471150502" text-anchor="middle" dominant-baseline="alphabetic">30</text></g><g><text fill="none" stroke="#ffffff" font-family="Arial" font-size="14px" font-style="normal" font-weight="normal" text-decoration="normal" x="63.380386079809455" y="720.3070245566591" text-anchor="middle" dominant-baseline="alphabetic" stroke-miterlimit="2" stroke-width="3" stroke-dasharray="">10</text><text fill="#000000" stroke="none" font-family="Arial" font-size="14px" font-style="normal" font-weight="normal" text-decoration="normal" x="63.380386079809455" y="720.3070245566591" text-anchor="middle" dominant-baseline="alphabetic">10</text></g><g><text fill="none" stroke="#ffffff" font-family="Arial" font-size="14px" font-style="normal" font-weight="normal" text-decoration="normal" x="63.380386079809455" y="583.1131019982681" text-anchor="middle" dominant-baseline="alphabetic" stroke-miterlimit="2" stroke-width="3" stroke-dasharray="">20</text><text fill="#000000" stroke="none" font-family="Arial" font-size="14px" font-style="normal" font-weight="normal" text-decoration="normal" x="63.380386079809455" y="583.1131019982681" text-anchor="middle" dominant-baseline="alphabetic">20</text></g><g><text fill="none" stroke="#ffffff" font-family="Arial" font-size="14px" font-style="normal" font-weight="normal" text-decoration="normal" x="63.380386079809455" y="445.91917943987704" text-anchor="middle" dominant-baseline="alphabetic" stroke-miterlimit="2" stroke-width="3" stroke-dasharray="">30</text><text fill="#000000" stroke="none" font-family="Arial" font-size="14px" font-style="normal" font-weight="normal" text-decoration="normal" x="63.380386079809455" y="445.91917943987704" text-anchor="middle" dominant-baseline="alphabetic">30</text></g><g><text fill="none" stroke="#ffffff" font-family="Arial" font-size="14px" font-style="normal" font-weight="normal" text-decoration="normal" x="63.380386079809455" y="308.7252568814861" text-anchor="middle" dominant-baseline="alphabetic" stroke-miterlimit="2" stroke-width="3" stroke-dasharray="">40</text><text fill="#000000" stroke="none" font-family="Arial" font-size="14px" font-style="normal" font-weight="normal" text-decoration="normal" x="63.380386079809455" y="308.7252568814861" text-anchor="middle" dominant-baseline="alphabetic">40</text></g><g><text fill="none" stroke="#ffffff" font-family="Arial" font-size="14px" font-style="normal" font-weight="normal" text-decoration="normal" x="63.380386079809455" y="171.53133432309494" text-anchor="middle" dominant-baseline="alphabetic" stroke-miterlimit="2" stroke-width="3" stroke-dasharray="">50</text><text fill="#000000" stroke="none" font-family="Arial" font-size="14px" font-style="normal" font-weight="normal" text-decoration="normal" x="63.380386079809455" y="171.53133432309494" text-anchor="middle" dominant-baseline="alphabetic">50</text></g><g><text fill="none" stroke="#ffffff" font-family="Arial" font-size="14px" font-style="normal" font-weight="normal" text-decoration="normal" x="63.380386079809455" y="34.33741176470392" text-anchor="middle" dominant-baseline="alphabetic" stroke-miterlimit="2" stroke-width="3" stroke-dasharray="">60</text><text fill="#000000" stroke="none" font-family="Arial" font-size="14px" font-style="normal" font-weight="normal" text-decoration="normal" x="63.380386079809455" y="34.33741176470392" text-anchor="middle" dominant-baseline="alphabetic">60</text></g></g><path fill="#388c46" stroke="none" paint-order="stroke fill markers" d="" fill-opacity="0.4"/><g><path fill="none" stroke="#388c46" paint-order="fill stroke markers" d=" M 1.4210854715202004e-14 803.6591786900292 L 10.687153979377818 801.0544253771282 M 17.488070148072786 799.3968550871002 L 28.17522412745059 796.7921017741992 M 34.97614029614556 795.1345314841712 L 45.66329427552336 792.5297781712702 M 52.46421044421833 790.8722078812423 L 63.151364423596135 788.2674545683412 M 69.9522805922911 786.6098842783133 L 80.63943457166891 784.0051309654123 M 87.44035074036388 782.3475606753843 L 98.1275047197417 779.7428073624833 M 104.92842088843666 778.0852370724554 L 115.61557486781446 775.4804837595543 M 122.41649103650943 773.8229134695264 L 133.10364501588722 771.2181601566253 M 139.90456118458218 769.5605898665974 L 150.59171516395998 766.9558365536964 M 157.39263133265493 765.2982662636684 L 168.07978531203273 762.6935129507674 M 174.88070148072768 761.0359426607395 L 185.56785546010548 758.4311893478384 M 192.36877162880043 756.7736190578105 L 203.05592560817823 754.1688657449095 M 209.85684177687318 752.5112954548815 L 220.54399575625098 749.9065421419805 M 227.34491192494593 748.2489718519525 L 238.03206590432373 745.6442185390515 M 244.83298207301868 743.9866482490236 L 255.52013605239648 741.3818949361225 M 262.32105222109146 739.7243246460946 L 273.00820620046926 737.1195713331936 M 279.80912236916424 735.4620010431656 L 290.49627634854204 732.8572477302646 M 297.297192517237 731.1996774402367 L 307.9843464966148 728.5949241273356 M 314.7852626653098 726.9373538373077 L 325.4724166446876 724.3326005244066 M 332.2733328133826 722.6750302343787 L 342.9604867927604 720.0702769214777 M 349.76140296145536 718.4127066314497 L 360.44855694083316 715.8079533185486 M 367.24947310952814 714.1503830285207 L 377.93662708890594 711.5456297156195 M 384.7375432576009 709.8880594255916 L 395.4246972369787 707.2833061126904 M 402.2256134056737 705.6257358226625 L 412.9127673850515 703.0209825097613 M 419.7136835537465 701.3634122197334 L 430.4008375331243 698.7586589068324 M 437.20175370181926 697.1010886168044 L 447.88890768119705 694.4963353039033 M 454.68982384989204 692.8387650138753 L 465.37697782926983 690.2340117009742 M 472.1778939979648 688.5764414109462 L 482.8650479773426 685.9716880980451 M 489.6659641460376 684.3141178080172 L 500.3531181254154 681.709364495116 M 507.1540342941104 680.0517942050881 L 517.8411882734882 677.447040892187 M 524.6421044421832 675.7894706021591 L 535.329258421561 673.184717289258 M 542.1301745902559 671.52714699923 L 552.8173285696338 668.9223936863289 M 559.6182447383287 667.2648233963009 L 570.3053987177066 664.6600700833998 M 577.1063148864015 663.0024997933718 L 587.7934688657793 660.3977464804707 M 594.5943850344743 658.7401761904428 L 605.2815390138521 656.1354228775416 M 612.082455182547 654.4778525875137 L 622.7696091619249 651.8730992746125 M 629.5705253306198 650.2155289845846 L 640.2576793099977 647.6107756716835 M 647.0585954786926 645.9532053816556 L 657.7457494580705 643.3484520687545 M 664.5466656267654 641.6908817787265 L 675.2338196061432 639.0861284658254 M 682.0347357748382 637.4285581757974 L 692.721889754216 634.8238048628963 M 699.522805922911 633.1662345728683 L 710.2099599022888 630.5614812599672 M 717.0108760709837 628.9039109699393 L 727.6980300503616 626.2991576570382 M 734.4989462190565 624.6415873670103 L 745.1861001984344 622.0368340541091 M 751.9870163671293 620.3792637640812 L 762.6741703465071 617.77451045118 M 769.4750865152021 616.1169401611521 L 780.1622404945799 613.512186848251 M 786.9631566632748 611.854616558223 L 797.6503106426527 609.2498632453219 M 804.4512268113476 607.5922929552939 L 815.1383807907255 604.9875396423928 M 821.9392969594204 603.3299693523649 L 832.6264509387983 600.7252160394637 M 839.4273671074932 599.0676457494358 L 850.114521086871 596.4628924365347 M 856.915437255566 594.8053221465068 L 867.6025912349438 592.2005688336056 M 874.4035074036387 590.5429985435777 L 885.0906613830166 587.9382452306766 M 891.8915775517115 586.2806749406486 L 902.5787315310894 583.6759216277476 M 909.3796476997843 582.0183513377197 L 920.0668016791622 579.4135980248185 M 926.8677178478571 577.7560277347906 L 937.5548718272349 575.1512744218894 M 944.3557879959299 573.4937041318615 L 955.0429419753077 570.8889508189603 M 961.8438581440026 569.2313805289324 L 972.5310121233805 566.6266272160312 M 979.3319282920754 564.9690569260033 L 990.0190822714533 562.3643036131022 M 996.8199984401482 560.7067333230742 L 1007.507152419526 558.1019800101731 M 1014.308068588221 556.4444097201451 L 1024.9952225675988 553.8396564072441 M 1031.7961387362939 552.1820861172162 L 1042.4832927156717 549.577332804315 M 1049.2842088843668 547.9197625142871 L 1059.9713628637446 545.3150092013859 M 1066.7722790324397 543.657438911358 L 1077.4594330118175 541.0526855984568 M 1084.2603491805125 539.3951153084289 L 1094.9475031598904 536.7903619955277 M 1101.7484193285854 535.1327917054998 L 1112.4355733079633 532.5280383925988 M 1119.2364894766583 530.8704681025708 L 1129.9236434560362 528.2657147896697 M 1136.7245596247312 526.6081444996418 L 1147.411713604109 524.0033911867406 M 1154.2126297728041 522.3458208967127 L 1164.899783752182 519.7410675838115 M 1171.700699920877 518.0834972937836 L 1182.3878539002549 515.4787439808824 M 1189.18877006895 513.8211736908545 L 1199.8759240483278 511.2164203779534 M 1206.6768402170228 509.5588500879254 L 1217.3639941964007 506.9540967750243 M 1224.1649103650957 505.2965264849963 L 1234.8520643444735 502.6917731720952 M 1241.6529805131686 501.03420288206723 L 1252.3401344925464 498.42944956916614 M 1259.1410506612415 496.77187927913815 L 1269.8282046406193 494.16712596623705 M 1276.6291208093144 492.50955567620906 L 1287.3162747886922 489.90480236330797 M 1294.1171909573873 488.24723207328 L 1304.8043449367651 485.6424787603789 M 1311.6052611054602 483.9849084703509 L 1322.292415084838 481.3801551574498 M 1329.093331253533 479.7225848674218 L 1339.780485232911 477.1178315545207 M 1346.581401401606 475.4602612644927 L 1357.2685553809838 472.8555079515916 M 1364.0694715496788 471.1979376615636 L 1374.7566255290567 468.59318434866253 M 1381.5575416977517 466.93561405863454 L 1392.2446956771296 464.33086074573345 M 1399.0456118458244 462.67329045570546 L 1409.732765825202 460.06853714280436 M 1416.533681993897 458.41096685277637 L 1427.220835973275 455.8062135398753 M 1434.0217521419697 454.1486432498473 L 1444.7089061213474 451.5438899369462 M 1451.5098222900424 449.8863196469182 L 1462.1969762694202 447.2815663340171 M 1468.997892438115 445.6239960439891 L 1479.685046417493 443.019242731088 M 1486.4859625861877 441.36167244106 L 1497.1731165655656 438.7569191281589 M 1503.9740327342604 437.09934883813094 L 1514.6611867136382 434.49459552522984 M 1521.462102882333 432.83702523520185 L 1532.149256861711 430.23227192230075 M 1538.9501730304057 428.57470163227276 L 1549.6373270097833 425.96994831937167 M 1556.4382431784784 424.31237802934373 L 1567.1253971578562 421.70762471644264 M 1573.926313326551 420.0500544264147 L 1584.6134673059287 417.4453011135136 M 1591.4143834746237 415.7877308234856 L 1602.1015374540016 413.1829775105845 M 1608.9024536226964 411.5254072205566 L 1619.5896076020742 408.9206539076555 M 1626.390523770769 407.26308361762756 L 1637.077677750147 404.65833030472646 M 1643.8785939188417 403.0007600146985 L 1654.5657478982196 400.39600670179743 M 1661.3666640669144 398.73843641176944 L 1672.0538180462922 396.13368309886835 M 1678.854734214987 394.4761128088404 L 1689.541888194365 391.8713594959393 M 1696.3428043630597 390.2137892059114 L 1707.0299583424376 387.6090358930103 M 1713.8308745111324 385.9514656029823 L 1724.5180284905102 383.3467122900812 M 1731.318944659205 381.68914200005327 L 1742.006098638583 379.08438868715217 M 1748.8070148072777 377.42681839712424 L 1759.4941687866556 374.82206508422314 M 1766.2950849553504 373.1644947941952 L 1776.9822389347282 370.5597414812941 M 1783.783155103423 368.9021711912661 L 1794.470309082801 366.297417878365 M 1801.2712252514957 364.6398475883371 L 1811.9583792308736 362.035094275436 M 1818.7592953995684 360.37752398540806 L 1829.4464493789462 357.77277067250697 M 1836.247365547641 356.115200382479 L 1846.934519527019 353.5104470695779 M 1853.7354356957137 351.85287677954994 L 1864.4225896750916 349.24812346664885" stroke-linecap="round" stroke-linejoin="round" stroke-miterlimit="10" stroke-width="2.5" stroke-dasharray=""/></g><path fill="#c74440" stroke="none" paint-order="stroke fill markers" d="" fill-opacity="0.4"/><g><path fill="none" stroke="#c74440" paint-order="fill stroke markers" d=" M -4.499999999999972 850.360892659863 L -4.499999999999972 850.360892659863 L 29.750000000000014 846.2945579091235 L 64.00000000000003 841.7203031244934 L 98.25000000000004 836.638128305973 L 132.75000000000006 831.0053625879265 L 167.25 824.8572348833377 L 201.75000000000003 818.1937451922068 L 236.50000000000003 810.9609920658054 L 271.25 803.2053808769182 L 306.25 794.865459977581 L 341.25000000000006 785.9951308165223 L 376.25 776.5943933937419 L 411.50000000000006 766.5904031083073 L 447 755.9717128839577 L 482.50000000000006 744.8073516295391 L 518.25 733.012919421274 L 554 720.665103613828 L 590 707.67173759102 L 626.2500000000001 694.0211307217754 L 662.75 679.7015111900815 L 699.25 664.8050456121193 L 736.0000000000001 649.2237633704401 L 773.0000000000001 632.9457302791551 L 810.25 615.9589309674377 L 847.75 598.251268879523 L 885.5000000000001 579.8105662747082 L 923.5000000000001 560.6245642273525 L 961.7500000000001 540.6809226268773 L 1000.2500000000001 519.9672201777653 L 1039 498.47095439956223 L 1078 476.17954162687465 L 1117.25 453.0803170093718 L 1156.75 429.1605345117851 L 1196.75 404.24952168286893 L 1237 378.4835285601487 L 1277.5 351.8494843686036 L 1318.25 324.3342371482744 L 1359.5 295.74909139167596 L 1401 266.2472377267334 L 1442.7500000000005 235.81519945373543 L 1485 204.25037137915 L 1527.5 171.71898784427685 L 1570.5 138.00894501783557 L 1614 103.09231528114753 L 1657.75 67.14862024370188 L 1702.0000000000005 29.95111572372889 L 1745.5561484774214 -7.5" stroke-linecap="round" stroke-linejoin="round" stroke-miterlimit="10" stroke-width="4.5" stroke-dasharray=""/></g><path fill="#2d70b3" stroke="none" paint-order="stroke fill markers" d="" fill-opacity="0.4"/><g><path fill="none" stroke="#2d70b3" paint-order="fill stroke markers" d=" M 8.860987860773093 886.5 L 18.74880357182553 881.6801348084967 M 25.041049933404352 878.6129478684493 L 34.928865644456785 873.793082676946 M 41.221112006035604 870.7258957368985 L 51.10892771708804 865.9060305453952 M 57.401174078666855 862.8388436053476 L 67.2889897897193 858.0189784138444 M 73.58123615129811 854.9517914737969 L 83.46905186235055 850.1319262822936 M 89.76129822392937 847.0647393422461 L 99.64911393498181 842.2448741507428 M 105.94136029656063 839.1776872106952 L 115.82917600761307 834.357822019192 M 122.12142236919189 831.2906350791445 L 132.00923808024433 826.4707698876413 M 138.30148444182316 823.4035829475938 L 148.1893001528756 818.5837177560906 M 154.48154651445444 815.5165308160431 L 164.36936222550688 810.6966656245398 M 170.6616085870857 807.6294786844923 L 180.54942429813815 802.809613492989 M 186.84167065971698 799.7424265529414 L 196.72948637076942 794.9225613614382 M 203.02173273234826 791.8553744213907 L 212.9095484434007 787.0355092298875 M 219.20179480497953 783.96832228984 L 229.08961051603197 779.1484570983367 M 235.3818568776108 776.0812701582893 L 245.26967258866324 771.261404966786 M 251.56191895024207 768.1942180267386 L 261.4497346612945 763.3743528352353 M 267.7419810228733 760.3071658951877 L 277.62979673392573 755.4873007036845 M 283.92204309550453 752.4201137636369 L 293.809858806557 747.6002485721336 M 300.1021051681358 744.5330616320862 L 309.9899208791882 739.7131964405829 M 316.282167240767 736.6460095005355 L 326.16998295181946 731.8261443090322 M 332.46222931339827 728.7589573689846 L 342.3500450244507 723.9390921774814 M 348.6422913860295 720.8719052374339 L 358.53010709708195 716.0520400459307 M 364.82235345866076 712.9848531058831 L 374.7101691697132 708.1649879143798 M 381.002415531292 705.0978009743322 L 390.89023124234444 700.277935782829 M 397.18247760392325 697.2107488427815 L 407.0702933149757 692.3908836512783 M 413.3625396765545 689.3236967112307 L 423.25035538760693 684.5038315197274 M 429.54260174918574 681.43664457968 L 439.4304174602382 676.6167793881767 M 445.722663821817 673.5495924481293 L 455.6104795328694 668.729727256626 M 461.9027258944482 665.6625403165785 L 471.79054160550066 660.8426751250753 M 478.08278796707947 657.7754881850277 L 487.9706036781319 652.9556229935245 M 494.2628500397107 649.8884360534769 L 504.15066575076315 645.0685708619736 M 510.44291211234196 642.0013839219262 L 520.3307278233943 637.1815187304229 M 526.6229741849731 634.1143317903754 L 536.5107898960256 629.2944665988722 M 542.8030362576044 626.2272796588247 L 552.6908519686568 621.4074144673215 M 558.9830983302356 618.3402275272739 L 568.8709140412881 613.5203623357706 M 575.1631604028669 610.4531753957231 L 585.0509761139193 605.6333102042198 M 591.3432224754981 602.5661232641723 L 601.2310381865506 597.7462580726691 M 607.5232845481294 594.6790711326216 L 617.4111002591818 589.8592059411184 M 623.7033466207606 586.7920190010709 L 633.591162331813 581.9721538095677 M 639.8834086933919 578.9049668695201 L 649.7712244044443 574.0851016780168 M 656.0634707660231 571.0179147379692 L 665.9512864770755 566.198049546466 M 672.2435328386543 563.1308626064185 L 682.1313485497068 558.3109974149153 M 688.4235949112856 555.2438104748677 L 698.311410622338 550.4239452833644 M 704.6036569839168 547.356758343317 L 714.4914726949693 542.5368931518137 M 720.7837190565481 539.4697062117662 L 730.6715347676005 534.6498410202629 M 736.9637811291793 531.5826540802154 L 746.8515968402318 526.7627888887122 M 753.1438432018106 523.6956019486647 L 763.031658912863 518.8757367571615 M 769.3239052744418 515.808549817114 L 779.2117209854943 510.98868462561074 M 785.5039673470731 507.9214976855632 L 795.3917830581255 503.10163249405997 M 801.6840294197043 500.03444555401245 L 811.5718451307567 495.2145803625092 M 817.8640914923355 492.1473934224617 L 827.751907203388 487.3275282309584 M 834.0441535649668 484.2603412909109 L 843.9319692760192 479.44047609940765 M 850.224215637598 476.3732891593601 L 860.1120313486505 471.5534239678569 M 866.4042777102293 468.48623702780935 L 876.2920934212817 463.6663718363061 M 882.5843397828605 460.5991848962586 L 892.472155493913 455.7793197047553 M 898.7644018554918 452.7121327647078 L 908.6522175665442 447.89226757320455 M 914.944463928123 444.82508063315703 L 924.8322796391755 440.0052154416538 M 931.1245260007543 436.93802850160625 L 941.0123417118067 432.118163310103 M 947.3045880733855 429.0509763700555 L 957.1924037844379 424.2311111785522 M 963.4846501460167 421.1639242385047 L 973.3724658570692 416.34405904700145 M 979.664712218648 413.27687210695393 L 989.5525279297004 408.4570069154507 M 995.8447742912792 405.38981997540316 L 1005.7325900023317 400.5699547838999 M 1012.0248363639105 397.5027678438524 L 1021.9126520749629 392.6829026523491 M 1028.2048984365417 389.6157157123016 L 1038.0927141475943 384.79585052079835 M 1044.3849605091732 381.72866358075083 L 1054.2727762202258 376.9087983892476 M 1060.5650225818047 373.84161144920006 L 1070.452838292857 369.0217462576968 M 1076.745084654436 365.9545593176493 L 1086.6329003654882 361.13469412614603 M 1092.9251467270672 358.0675071860985 L 1102.8129624381195 353.24764199459526 M 1109.1052087996984 350.18045505454774 L 1118.9930245107507 345.3605898630445 M 1125.2852708723296 342.29340292299696 L 1135.173086583382 337.4735377314937 M 1141.465332944961 334.4063507914462 L 1151.3531486560132 329.58648559994293 M 1157.6453950175921 326.5192986598954 L 1167.5332107286445 321.69943346839216 M 1173.8254570902234 318.63224652834464 L 1183.7132728012757 313.8123813368414 M 1190.0055191628546 310.74519439679386 L 1199.893334873907 305.9253292052906 M 1206.1855812354859 302.8581422652431 L 1216.0733969465382 298.03827707373983 M 1222.3656433081171 294.9710901336923 L 1232.2534590191694 290.15122494218906 M 1238.5457053807484 287.08403800214154 L 1248.433521091801 282.2641728106383 M 1254.7257674533798 279.19698587059077 L 1264.6135831644322 274.3771206790875 M 1270.905829526011 271.30993373904 L 1280.7936452370634 266.49006854753674 M 1287.0858915986423 263.4228816074892 L 1296.9737073096946 258.60301641598596 M 1303.2659536712736 255.53582947593844 L 1313.153769382326 250.7159642844352 M 1319.4460157439048 247.64877734438767 L 1329.3338314549571 242.8289121528844 M 1335.626077816536 239.7617252128369 L 1345.5138935275884 234.94186002133364 M 1351.8061398891673 231.87467308128612 L 1361.6939556002196 227.05480788978286 M 1367.9862019617985 223.98762094973534 L 1377.874017672851 219.1677557582321 M 1384.16626403443 216.10056881818457 L 1394.0540797454823 211.28070362668132 M 1400.3463261070613 208.2135166866338 L 1410.2341418181136 203.39365149513054 M 1416.5263881796925 200.32646455508302 L 1426.4142038907448 195.50659936357977 M 1432.7064502523237 192.43941242353225 L 1442.594265963376 187.619547232029 M 1448.886512324955 184.55236029198147 L 1458.7743280360073 179.73249510047822 M 1465.0665743975862 176.6653081604307 L 1474.9543901086386 171.84544296892747 M 1481.2466364702175 168.77825602887995 L 1491.1344521812698 163.95839083737673 M 1497.4266985428487 160.8912038973292 L 1507.314514253901 156.07133870582598 M 1513.60676061548 153.00415176577846 L 1523.4945763265323 148.18428657427523 M 1529.7868226881112 145.1170996342277 L 1539.6746383991635 140.29723444272446 M 1545.9668847607425 137.23004750267694 L 1555.8547004717948 132.4101823111737 M 1562.1469468333737 129.3429953711262 L 1572.034762544426 124.52313017962295 M 1578.327008906005 121.45594323957543 L 1588.2148246170573 116.63607804807219 M 1594.5070709786362 113.56889110802467 L 1604.3948866896887 108.74902591652143 M 1610.6871330512677 105.68183897647391 L 1620.57494876232 100.86197378497067 M 1626.867195123899 97.79478684492315 L 1636.7550108349512 92.97492165341991 M 1643.0472571965302 89.90773471337239 L 1652.9350729075825 85.08786952186915 M 1659.2273192691614 82.02068258182163 L 1669.1151349802137 77.20081739031839 M 1675.4073813417926 74.13363045027087 L 1685.295197052845 69.31376525876763 M 1691.587443414424 66.24657831872011 L 1701.4752591254762 61.42671312721687 M 1707.7675054870551 58.35952618716936 L 1717.6553211981075 53.53966099566612 M 1723.9475675596864 50.472474055618605 L 1733.8353832707387 45.652608864115365 M 1740.1276296323176 42.58542192406785 L 1750.0154453433702 37.76555673256461 M 1756.307691704949 34.6983697925171 L 1766.1955074160014 29.87850460101386 M 1772.4877537775803 26.811317660966342 L 1782.3755694886327 21.991452469463106 M 1788.6678158502116 18.92426552941559 L 1798.555631561264 14.10440033791235 M 1804.8478779228428 11.037213397864836 L 1814.7356936338952 6.2173482063615975 M 1821.027939995474 3.150161266314082 L 1830.9157557065264 -1.6697039251891561 M 1837.2080020681053 -4.736890865236672 L 1838.7734986519645 -5.5" stroke-linecap="round" stroke-linejoin="round" stroke-miterlimit="10" stroke-width="2.5" stroke-dasharray=""/></g><path fill="#6042a6" stroke="none" paint-order="stroke fill markers" d="" fill-opacity="0.4"/><g><path fill="none" stroke="#6042a6" paint-order="fill stroke markers" d=" M 1.4210854715202004e-14 451.39277586696437 L 10.919219381639929 450.06211885044235 M 17.867813533592603 449.2153371126556 L 28.787032915232516 447.8846800961336 M 35.73562706718519 447.03789835834687 L 46.654846448825104 445.70724134182484 M 53.60344060077777 444.8604596040381 L 64.5226599824177 443.5298025875161 M 71.47125413437037 442.68302084972936 L 82.39047351601029 441.35236383320733 M 89.33906766796296 440.5055820954206 L 100.25828704960288 439.1749250788986 M 107.20688120155556 438.32814334111185 L 118.12610058319548 436.99748632458983 M 125.07469473514816 436.1507045868031 L 135.99391411678806 434.8200475702811 M 142.94250826874074 433.97326583249435 L 153.86172765038066 432.6426088159723 M 160.81032180233333 431.7958270781856 L 171.72954118397325 430.46517006166357 M 178.67813533592593 429.61838832387684 L 189.59735471756585 428.2877313073548 M 196.54594886951853 427.4409495695681 L 207.46516825115845 426.11029255304607 M 214.41376240311112 425.26351081525934 L 225.33298178475104 423.9328537987373 M 232.28157593670372 423.0860720609506 L 243.20079531834364 421.75541504442856 M 250.1493894702963 420.90863330664183 L 261.06860885193623 419.5779762901198 M 268.0172030038889 418.7311945523331 L 278.9364223855288 417.40053753581105 M 285.8850165374814 416.5537557980243 L 296.8042359191213 415.2230987815023 M 303.75283007107396 414.3763170437156 L 314.67204945271385 413.04566002719355 M 321.6206436046665 412.1988782894068 L 332.5398629863064 410.8682212728848 M 339.48845713825904 410.02143953509807 L 350.4076765198989 408.69078251857604 M 357.3562706718516 407.8440007807893 L 368.27549005349147 406.5133437642673 M 375.2240842054441 405.66656202648056 L 386.143303587084 404.33590500995854 M 393.09189773903665 403.4891232721718 L 404.01111712067654 402.1584662556498 M 410.9597112726292 401.31168451786306 L 421.8789306542691 399.98102750134103 M 428.82752480622173 399.1342457635543 L 439.7467441878616 397.8035887470323 M 446.69533833981427 396.95680700924555 L 457.61455772145416 395.6261499927235 M 464.5631518734068 394.7793682549368 L 475.4823712550467 393.4487112384148 M 482.43096540699935 392.60192950062805 L 493.35018478863924 391.271272484106 M 500.29877894059194 390.4244907463193 L 511.2179983222319 389.09383372979727 M 518.1665924741845 388.24705199201054 L 529.0858118558244 386.9163949754885 M 536.0344060077771 386.0696132377018 L 546.953625389417 384.73895622117976 M 553.9022195413696 383.89217448339303 L 564.8214389230095 382.561517466871 M 571.7700330749622 381.7147357290843 L 582.689252456602 380.38407871256226 M 589.6378466085547 379.53729697477553 L 600.5570659901946 378.2066399582535 M 607.5056601421472 377.3598582204668 L 618.4248795237871 376.02920120394475 M 625.3734736757398 375.182419466158 L 636.2926930573797 373.851762449636 M 643.2412872093323 373.00498071184927 L 654.1605065909722 371.67432369532725 M 661.1091007429249 370.8275419575405 L 672.0283201245647 369.4968849410185 M 678.9769142765174 368.65010320323177 L 689.8961336581573 367.31944618670974 M 696.8447278101099 366.472664448923 L 707.7639471917498 365.142007432401 M 714.7125413437025 364.29522569461426 L 725.6317607253424 362.96456867809223 M 732.580354877295 362.1177869403055 L 743.4995742589349 360.7871299237835 M 750.4481684108875 359.94034818599675 L 761.3673877925274 358.60969116947473 M 768.3159819444801 357.762909431688 L 779.23520132612 356.432252415166 M 786.1837954780726 355.58547067737925 L 797.1030148597125 354.2548136608572 M 804.0516090116652 353.4080319230705 L 814.970828393305 352.07737490654847 M 821.9194225452577 351.23059316876174 L 832.8386419268976 349.8999361522397 M 839.7872360788502 349.053154414453 L 850.7064554604901 347.72249739793097 M 857.6550496124428 346.87571566014424 L 868.5742689940827 345.5450586436222 M 875.5228631460353 344.6982769058355 L 886.4420825276752 343.36761988931346 M 893.3906766796279 342.52083815152673 L 904.3098960612678 341.1901811350047 M 911.2584902132204 340.343399397218 L 922.1777095948603 339.01274238069595 M 929.1263037468129 338.1659606429092 L 940.0455231284528 336.8353036263872 M 946.9941172804055 335.9885218886005 L 957.9133366620454 334.65786487207845 M 964.861930813998 333.8110831342917 L 975.7811501956379 332.4804261177697 M 982.7297443475906 331.63364437998297 L 993.6489637292304 330.30298736346094 M 1000.5975578811831 329.4562056256742 L 1011.516777262823 328.1255486091522 M 1018.4653714147756 327.27876687136546 L 1029.3845907964155 325.94810985484344 M 1036.3331849483682 325.1013281170567 L 1047.2524043300082 323.77067110053474 M 1054.2009984819608 322.923889362748 L 1065.1202178636008 321.593232346226 M 1072.0688120155535 320.74645060843926 L 1082.9880313971935 319.41579359191724 M 1089.9366255491461 318.5690118541305 L 1100.8558449307861 317.23835483760854 M 1107.8044390827388 316.3915730998218 L 1118.7236584643788 315.06091608329984 M 1125.6722526163314 314.2141343455131 L 1136.5914719979714 312.8834773289911 M 1143.540066149924 312.03669559120436 L 1154.459285531564 310.7060385746824 M 1161.4078796835167 309.85925683689567 L 1172.3270990651567 308.52859982037364 M 1179.2756932171094 307.6818180825869 L 1190.1949125987494 306.35116106606495 M 1197.143506750702 305.5043793282782 L 1208.062726132342 304.17372231175625 M 1215.0113202842947 303.3269405739695 L 1225.9305396659347 301.9962835574475 M 1232.8791338178874 301.14950181966077 L 1243.7983531995274 299.81884480313875 M 1250.74694735148 298.972063065352 L 1261.66616673312 297.64140604883005 M 1268.6147608850727 296.7946243110433 L 1279.5339802667127 295.46396729452135 M 1286.4825744186653 294.6171855567346 L 1297.4017938003053 293.2865285402126 M 1304.350387952258 292.4397468024259 L 1315.269607333898 291.1090897859039 M 1322.2182014858506 290.2623080481172 L 1333.1374208674906 288.93165103159515 M 1340.0860150194433 288.0848692938084 L 1351.0052344010833 286.75421227728646 M 1357.953828553036 285.9074305394997 L 1368.873047934676 284.5767735229777 M 1375.8216420866286 283.729991785191 L 1386.7408614682686 282.399334768669 M 1393.6894556202212 281.5525530308823 L 1404.6086750018612 280.22189601436025 M 1411.5572691538139 279.3751142765735 L 1422.4764885354539 278.04445726005156 M 1429.4250826874065 277.19767552226483 L 1440.3443020690465 275.86701850574286 M 1447.2928962209992 275.02023676795613 L 1458.2121156026392 273.6895797514341 M 1465.1607097545918 272.8427980136474 L 1476.0799291362318 271.51214099712536 M 1483.0285232881845 270.66535925933863 L 1493.9477426698245 269.33470224281666 M 1500.8963368217771 268.48792050502993 L 1511.8155562034171 267.15726348850797 M 1518.7641503553698 266.31048175072124 L 1529.6833697370098 264.9798247341992 M 1536.6319638889624 264.1330429964125 L 1547.5511832706025 262.8023859798905 M 1554.499777422555 261.9556042421038 L 1565.418996804195 260.62494722558176 M 1572.3675909561478 259.77816548779504 L 1583.2868103377878 258.44750847127307 M 1590.2354044897404 257.60072673348634 L 1601.1546238713804 256.2700697169643 M 1608.103218023333 255.4232879791776 L 1619.022437404973 254.0926309626556 M 1625.9710315569257 253.24584922486886 L 1636.8902509385657 251.91519220834687 M 1643.8388450905184 251.06841047056014 L 1654.7580644721584 249.73775345403814 M 1661.706658624111 248.8909717162514 L 1672.625878005751 247.56031469972942 M 1679.5744721577037 246.7135329619427 L 1690.4936915393434 245.3828759454207 M 1697.442285691296 244.53609420763397 L 1708.361505072936 243.20543719111197 M 1715.3100992248887 242.35865545332524 L 1726.2293186065285 241.02799843680324 M 1733.1779127584812 240.18121669901652 L 1744.0971321401212 238.85055968249452 M 1751.0457262920738 238.0037779447078 L 1761.9649456737138 236.6731209281858 M 1768.9135398256665 235.82633919039907 L 1779.8327592073063 234.49568217387707 M 1786.781353359259 233.64890043609034 L 1797.700572740899 232.31824341956835 M 1804.6491668928516 231.47146168178162 L 1815.5683862744913 230.14080466525962 M 1822.516980426444 229.2940229274729 L 1833.436199808084 227.9633659109509 M 1840.3847939600366 227.11658417316417 L 1851.3040133416764 225.7859271566422 M 1858.252607493629 224.93914541885547 L 1869 223.62942786963538" stroke-linecap="round" stroke-linejoin="round" stroke-miterlimit="10" stroke-width="2.5" stroke-dasharray=""/></g></g></svg>