<svg version="1.1" xmlns="http://www.w3.org/2000/svg" xmlns:xlink="http://www.w3.org/1999/xlink" width="2400" height="1600"><defs/><g transform="scale(2,2)"><g id="background-bcad1e58"><rect fill="white" stroke="none" x="0" y="0" width="1200" height="800" class="dcg-svg-background"/></g><g id="graphpaper-bcad1e58"><g id="grid-bcad1e58"><g><path fill="none" stroke="rgb(0,0,0)" class="dcg-svg-minor-gridline" paint-order="fill stroke markers" d=" M 12.5 0 L 12.5 800" stroke-opacity="0.2" stroke-miterlimit="10" stroke-dasharray=""/><path fill="none" stroke="rgb(0,0,0)" class="dcg-svg-minor-gridline" paint-order="fill stroke markers" d=" M 85.5 0 L 85.5 800" stroke-opacity="0.2" stroke-miterlimit="10" stroke-dasharray=""/><path fill="none" stroke="rgb(0,0,0)" class="dcg-svg-minor-gridline" paint-order="fill stroke markers" d=" M 121.5 0 L 121.5 800" stroke-opacity="0.2" stroke-miterlimit="10" stroke-dasharray=""/><path fill="none" stroke="rgb(0,0,0)" class="dcg-svg-minor-gridline" paint-order="fill stroke markers" d=" M 157.5 0 L 157.5 800" stroke-opacity="0.2" stroke-miterlimit="10" stroke-dasharray=""/><path fill="none" stroke="rgb(0,0,0)" class="dcg-svg-minor-gridline" paint-order="fill stroke markers" d=" M 193.5 0 L 193.5 800" stroke-opacity="0.2" stroke-miterlimit="10" stroke-dasharray=""/><path fill="none" stroke="rgb(0,0,0)" class="dcg-svg-minor-gridline" paint-order="fill stroke markers" d=" M 229.5 0 L 229.5 800" stroke-opacity="0.2" stroke-miterlimit="10" stroke-dasharray=""/><path fill="none" stroke="rgb(0,0,0)" class="dcg-svg-minor-gridline" paint-order="fill stroke markers" d=" M 265.5 0 L 265.5 800" stroke-opacity="0.2" stroke-miterlimit="10" stroke-dasharray=""/><path fill="none" stroke="rgb(0,0,0)" class="dcg-svg-minor-gridline" paint-order="fill stroke markers" d=" M 301.5 0 L 301.5 800" stroke-opacity="0.2" stroke-miterlimit="10" stroke-dasharray=""/><path fill="none" stroke="rgb(0,0,0)" class="dcg-svg-minor-gridline" paint-order="fill stroke markers" d=" M 338.5 0 L 338.5 800" stroke-opacity="0.2" stroke-miterlimit="10" stroke-dasharray=""/><path fill="none" stroke="rgb(0,0,0)" class="dcg-svg-minor-gridline" paint-order="fill stroke markers" d=" M 374.5 0 L 374.5 800" stroke-opacity="0.2" stroke-miterlimit="10" stroke-dasharray=""/><path fill="none" stroke="rgb(0,0,0)" class="dcg-svg-minor-gridline" paint-order="fill stroke markers" d=" M 410.5 0 L 410.5 800" stroke-opacity="0.2" stroke-miterlimit="10" stroke-dasharray=""/><path fill="none" stroke="rgb(0,0,0)" class="dcg-svg-minor-gridline" paint-order="fill stroke markers" d=" M 446.5 0 L 446.5 800" stroke-opacity="0.2" stroke-miterlimit="10" stroke-dasharray=""/><path fill="none" stroke="rgb(0,0,0)" class="dcg-svg-minor-gridline" paint-order="fill stroke markers" d=" M 482.5 0 L 482.5 800" stroke-opacity="0.2" stroke-miterlimit="10" stroke-dasharray=""/><path fill="none" stroke="rgb(0,0,0)" class="dcg-svg-minor-gridline" paint-order="fill stroke markers" d=" M 518.5 0 L 518.5 800" stroke-opacity="0.2" stroke-miterlimit="10" stroke-dasharray=""/><path fill="none" stroke="rgb(0,0,0)" class="dcg-svg-minor-gridline" paint-order="fill stroke markers" d=" M 554.5 0 L 554.5 800" stroke-opacity="0.2" stroke-miterlimit="10" stroke-dasharray=""/><path fill="none" stroke="rgb(0,0,0)" class="dcg-svg-minor-gridline" paint-order="fill stroke markers" d=" M 591.5 0 L 591.5 800" stroke-opacity="0.2" stroke-miterlimit="10" stroke-dasharray=""/><path fill="none" stroke="rgb(0,0,0)" class="dcg-svg-minor-gridline" paint-order="fill stroke markers" d=" M 627.5 0 L 627.5 800" stroke-opacity="0.2" stroke-miterlimit="10" stroke-dasharray=""/><path fill="none" stroke="rgb(0,0,0)" class="dcg-svg-minor-gridline" paint-order="fill stroke markers" d=" M 663.5 0 L 663.5 800" stroke-opacity="0.2" stroke-miterlimit="10" stroke-dasharray=""/><path fill="none" stroke="rgb(0,0,0)" class="dcg-svg-minor-gridline" paint-order="fill stroke markers" d=" M 699.5 0 L 699.5 800" stroke-opacity="0.2" stroke-miterlimit="10" stroke-dasharray=""/><path fill="none" stroke="rgb(0,0,0)" class="dcg-svg-minor-gridline" paint-order="fill stroke markers" d=" M 735.5 0 L 735.5 800" stroke-opacity="0.2" stroke-miterlimit="10" stroke-dasharray=""/><path fill="none" stroke="rgb(0,0,0)" class="dcg-svg-minor-gridline" paint-order="fill stroke markers" d=" M 771.5 0 L 771.5 800" stroke-opacity="0.2" stroke-miterlimit="10" stroke-dasharray=""/><path fill="none" stroke="rgb(0,0,0)" class="dcg-svg-minor-gridline" paint-order="fill stroke markers" d=" M 807.5 0 L 807.5 800" stroke-opacity="0.2" stroke-miterlimit="10" stroke-dasharray=""/><path fill="none" stroke="rgb(0,0,0)" class="dcg-svg-minor-gridline" paint-order="fill stroke markers" d=" M 844.5 0 L 844.5 800" stroke-opacity="0.2" stroke-miterlimit="10" stroke-dasharray=""/><path fill="none" stroke="rgb(0,0,0)" class="dcg-svg-minor-gridline" paint-order="fill stroke markers" d=" M 880.5 0 L 880.5 800" stroke-opacity="0.2" stroke-miterlimit="10" stroke-dasharray=""/><path fill="none" stroke="rgb(0,0,0)" class="dcg-svg-minor-gridline" paint-order="fill stroke markers" d=" M 916.5 0 L 916.5 800" stroke-opacity="0.2" stroke-miterlimit="10" stroke-dasharray=""/><path fill="none" stroke="rgb(0,0,0)" class="dcg-svg-minor-gridline" paint-order="fill stroke markers" d=" M 952.5 0 L 952.5 800" stroke-opacity="0.2" stroke-miterlimit="10" stroke-dasharray=""/><path fill="none" stroke="rgb(0,0,0)" class="dcg-svg-minor-gridline" paint-order="fill stroke markers" d=" M 988.5 0 L 988.5 800" stroke-opacity="0.2" stroke-miterlimit="10" stroke-dasharray=""/><path fill="none" stroke="rgb(0,0,0)" class="dcg-svg-minor-gridline" paint-order="fill stroke markers" d=" M 1024.5 0 L 1024.5 800" stroke-opacity="0.2" stroke-miterlimit="10" stroke-dasharray=""/><path fill="none" stroke="rgb(0,0,0)" class="dcg-svg-minor-gridline" paint-order="fill stroke markers" d=" M 1060.5 0 L 1060.5 800" stroke-opacity="0.2" stroke-miterlimit="10" stroke-dasharray=""/><path fill="none" stroke="rgb(0,0,0)" class="dcg-svg-minor-gridline" paint-order="fill stroke markers" d=" M 1096.5 0 L 1096.5 800" stroke-opacity="0.2" stroke-miterlimit="10" stroke-dasharray=""/><path fill="none" stroke="rgb(0,0,0)" class="dcg-svg-minor-gridline" paint-order="fill stroke markers" d=" M 1133.5 0 L 1133.5 800" stroke-opacity="0.2" stroke-miterlimit="10" stroke-dasharray=""/><path fill="none" stroke="rgb(0,0,0)" class="dcg-svg-minor-gridline" paint-order="fill stroke markers" d=" M 1169.5 0 L 1169.5 800" stroke-opacity="0.2" stroke-miterlimit="10" stroke-dasharray=""/><path fill="none" stroke="rgb(0,0,0)" class="dcg-svg-minor-gridline" paint-order="fill stroke markers" d=" M 0 750.5 L 1200 750.5" stroke-opacity="0.2" stroke-miterlimit="10" stroke-dasharray=""/><path fill="none" stroke="rgb(0,0,0)" class="dcg-svg-minor-gridline" paint-order="fill stroke markers" d=" M 0 725.5 L 1200 725.5" stroke-opacity="0.2" stroke-miterlimit="10" stroke-dasharray=""/><path fill="none" stroke="rgb(0,0,0)" class="dcg-svg-minor-gridline" paint-order="fill stroke markers" d=" M 0 700.5 L 1200 700.5" stroke-opacity="0.2" stroke-miterlimit="10" stroke-dasharray=""/><path fill="none" stroke="rgb(0,0,0)" class="dcg-svg-minor-gridline" paint-order="fill stroke markers" d=" M 0 675.5 L 1200 675.5" stroke-opacity="0.2" stroke-miterlimit="10" stroke-dasharray=""/><path fill="none" stroke="rgb(0,0,0)" class="dcg-svg-minor-gridline" paint-order="fill stroke markers" d=" M 0 650.5 L 1200 650.5" stroke-opacity="0.2" stroke-miterlimit="10" stroke-dasharray=""/><path fill="none" stroke="rgb(0,0,0)" class="dcg-svg-minor-gridline" paint-order="fill stroke markers" d=" M 0 625.5 L 1200 625.5" stroke-opacity="0.2" stroke-miterlimit="10" stroke-dasharray=""/><path fill="none" stroke="rgb(0,0,0)" class="dcg-svg-minor-gridline" paint-order="fill stroke markers" d=" M 0 600.5 L 1200 600.5" stroke-opacity="0.2" stroke-miterlimit="10" stroke-dasharray=""/><path fill="none" stroke="rgb(0,0,0)" class="dcg-svg-minor-gridline" paint-order="fill stroke markers" d=" M 0 575.5 L 1200 575.5" stroke-opacity="0.2" stroke-miterlimit="10" stroke-dasharray=""/><path fill="none" stroke="rgb(0,0,0)" class="dcg-svg-minor-gridline" paint-order="fill stroke markers" d=" M 0 550.5 L 1200 550.5" stroke-opacity="0.2" stroke-miterlimit="10" stroke-dasharray=""/><path fill="none" stroke="rgb(0,0,0)" class="dcg-svg-minor-gridline" paint-order="fill stroke markers" d=" M 0 526.5 L 1200 526.5" stroke-opacity="0.2" stroke-miterlimit="10" stroke-dasharray=""/><path fill="none" stroke="rgb(0,0,0)" class="dcg-svg-minor-gridline" paint-order="fill stroke markers" d=" M 0 501.5 L 1200 501.5" stroke-opacity="0.2" stroke-miterlimit="10" stroke-dasharray=""/><path fill="none" stroke="rgb(0,0,0)" class="dcg-svg-minor-gridline" paint-order="fill stroke markers" d=" M 0 476.5 L 1200 476.5" stroke-opacity="0.2" stroke-miterlimit="10" stroke-dasharray=""/><path fill="none" stroke="rgb(0,0,0)" class="dcg-svg-minor-gridline" paint-order="fill stroke markers" d=" M 0 451.5 L 1200 451.5" stroke-opacity="0.2" stroke-miterlimit="10" stroke-dasharray=""/><path fill="none" stroke="rgb(0,0,0)" class="dcg-svg-minor-gridline" paint-order="fill stroke markers" d=" M 0 426.5 L 1200 426.5" stroke-opacity="0.2" stroke-miterlimit="10" stroke-dasharray=""/><path fill="none" stroke="rgb(0,0,0)" class="dcg-svg-minor-gridline" paint-order="fill stroke markers" d=" M 0 401.5 L 1200 401.5" stroke-opacity="0.2" stroke-miterlimit="10" stroke-dasharray=""/><path fill="none" stroke="rgb(0,0,0)" class="dcg-svg-minor-gridline" paint-order="fill stroke markers" d=" M 0 376.5 L 1200 376.5" stroke-opacity="0.2" stroke-miterlimit="10" stroke-dasharray=""/><path fill="none" stroke="rgb(0,0,0)" class="dcg-svg-minor-gridline" paint-order="fill stroke markers" d=" M 0 351.5 L 1200 351.5" stroke-opacity="0.2" stroke-miterlimit="10" stroke-dasharray=""/><path fill="none" stroke="rgb(0,0,0)" class="dcg-svg-minor-gridline" paint-order="fill stroke markers" d=" M 0 326.5 L 1200 326.5" stroke-opacity="0.2" stroke-miterlimit="10" stroke-dasharray=""/><path fill="none" stroke="rgb(0,0,0)" class="dcg-svg-minor-gridline" paint-order="fill stroke markers" d=" M 0 301.5 L 1200 301.5" stroke-opacity="0.2" stroke-miterlimit="10" stroke-dasharray=""/><path fill="none" stroke="rgb(0,0,0)" class="dcg-svg-minor-gridline" paint-order="fill stroke markers" d=" M 0 276.5 L 1200 276.5" stroke-opacity="0.2" stroke-miterlimit="10" stroke-dasharray=""/><path fill="none" stroke="rgb(0,0,0)" class="dcg-svg-minor-gridline" paint-order="fill stroke markers" d=" M 0 251.5 L 1200 251.5" stroke-opacity="0.2" stroke-miterlimit="10" stroke-dasharray=""/><path fill="none" stroke="rgb(0,0,0)" class="dcg-svg-minor-gridline" paint-order="fill stroke markers" d=" M 0 227.5 L 1200 227.5" stroke-opacity="0.2" stroke-miterlimit="10" stroke-dasharray=""/><path fill="none" stroke="rgb(0,0,0)" class="dcg-svg-minor-gridline" paint-order="fill stroke markers" d=" M 0 202.5 L 1200 202.5" stroke-opacity="0.2" stroke-miterlimit="10" stroke-dasharray=""/><path fill="none" stroke="rgb(0,0,0)" class="dcg-svg-minor-gridline" paint-order="fill stroke markers" d=" M 0 177.5 L 1200 177.5" stroke-opacity="0.2" stroke-miterlimit="10" stroke-dasharray=""/><path fill="none" stroke="rgb(0,0,0)" class="dcg-svg-minor-gridline" paint-order="fill stroke markers" d=" M 0 152.5 L 1200 152.5" stroke-opacity="0.2" stroke-miterlimit="10" stroke-dasharray=""/><path fill="none" stroke="rgb(0,0,0)" class="dcg-svg-minor-gridline" paint-order="fill stroke markers" d=" M 0 127.5 L 1200 127.5" stroke-opacity="0.2" stroke-miterlimit="10" stroke-dasharray=""/><path fill="none" stroke="rgb(0,0,0)" class="dcg-svg-minor-gridline" paint-order="fill stroke markers" d=" M 0 102.5 L 1200 102.5" stroke-opacity="0.2" stroke-miterlimit="10" stroke-dasharray=""/><path fill="none" stroke="rgb(0,0,0)" class="dcg-svg-minor-gridline" paint-order="fill stroke markers" d=" M 0 77.5 L 1200 77.5" stroke-opacity="0.2" stroke-miterlimit="10" stroke-dasharray=""/><path fill="none" stroke="rgb(0,0,0)" class="dcg-svg-minor-gridline" paint-order="fill stroke markers" d=" M 0 52.5 L 1200 52.5" stroke-opacity="0.2" stroke-miterlimit="10" stroke-dasharray=""/><path fill="none" stroke="rgb(0,0,0)" class="dcg-svg-minor-gridline" paint-order="fill stroke markers" d=" M 0 27.5 L 1200 27.5" stroke-opacity="0.2" stroke-miterlimit="10" stroke-dasharray=""/><path fill="none" stroke="rgb(0,0,0)" class="dcg-svg-minor-gridline" paint-order="fill stroke markers" d=" M 0 2.5 L 1200 2.5" stroke-opacity="0.2" stroke-miterlimit="10" stroke-dasharray=""/><path fill="none" stroke="rgb(0,0,0)" class="dcg-svg-major-gridline" paint-order="fill stroke markers" d=" M 229.5 0 L 229.5 800" stroke-opacity="0.2500000000000001" stroke-miterlimit="10" stroke-dasharray=""/><path fill="none" stroke="rgb(0,0,0)" class="dcg-svg-major-gridline" paint-order="fill stroke markers" d=" M 410.5 0 L 410.5 800" stroke-opacity="0.2500000000000001" stroke-miterlimit="10" stroke-dasharray=""/><path fill="none" stroke="rgb(0,0,0)" class="dcg-svg-major-gridline" paint-order="fill stroke markers" d=" M 591.5 0 L 591.5 800" stroke-opacity="0.2500000000000001" stroke-miterlimit="10" stroke-dasharray=""/><path fill="none" stroke="rgb(0,0,0)" class="dcg-svg-major-gridline" paint-order="fill stroke markers" d=" M 771.5 0 L 771.5 800" stroke-opacity="0.2500000000000001" stroke-miterlimit="10" stroke-dasharray=""/><path fill="none" stroke="rgb(0,0,0)" class="dcg-svg-major-gridline" paint-order="fill stroke markers" d=" M 952.5 0 L 952.5 800" stroke-opacity="0.2500000000000001" stroke-miterlimit="10" stroke-dasharray=""/><path fill="none" stroke="rgb(0,0,0)" class="dcg-svg-major-gridline" paint-order="fill stroke markers" d=" M 1133.5 0 L 1133.5 800" stroke-opacity="0.2500000000000001" stroke-miterlimit="10" stroke-dasharray=""/><path fill="none" stroke="rgb(0,0,0)" class="dcg-svg-major-gridline" paint-order="fill stroke markers" d=" M 0 650.5 L 1200 650.5" stroke-opacity="0.2500000000000001" stroke-miterlimit="10" stroke-dasharray=""/><path fill="none" stroke="rgb(0,0,0)" class="dcg-svg-major-gridline" paint-order="fill stroke markers" d=" M 0 526.5 L 1200 526.5" stroke-opacity="0.2500000000000001" stroke-miterlimit="10" stroke-dasharray=""/><path fill="none" stroke="rgb(0,0,0)" class="dcg-svg-major-gridline" paint-order="fill stroke markers" d=" M 0 401.5 L 1200 401.5" stroke-opacity="0.2500000000000001" stroke-miterlimit="10" stroke-dasharray=""/><path fill="none" stroke="rgb(0,0,0)" class="dcg-svg-major-gridline" paint-order="fill stroke markers" d=" M 0 276.5 L 1200 276.5" stroke-opacity="0.2500000000000001" stroke-miterlimit="10" stroke-dasharray=""/><path fill="none" stroke="rgb(0,0,0)" class="dcg-svg-major-gridline" paint-order="fill stroke markers" d=" M 0 152.5 L 1200 152.5" stroke-opacity="0.2500000000000001" stroke-miterlimit="10" stroke-dasharray=""/><path fill="none" stroke="rgb(0,0,0)" class="dcg-svg-major-gridline" paint-order="fill stroke markers" d=" M 0 27.5 L 1200 27.5" stroke-opacity="0.2500000000000001" stroke-miterlimit="10" stroke-dasharray=""/></g></g><g id="axis-bcad1e58"><g id="yaxis-bcad1e58"><title>Y axis</title><g><path fill="none" stroke="rgb(0,0,0)" class="dcg-svg-axis-line" paint-order="fill stroke markers" d=" M 49 0 L 49 800" stroke-opacity="0.9" stroke-miterlimit="10" stroke-width="1.5" stroke-dasharray=""/></g></g><g id="xaxis-bcad1e58"><title>X axis</title><g><path fill="none" stroke="rgb(0,0,0)" class="dcg-svg-axis-line" paint-order="fill stroke markers" d=" M 0 775 L 1200 775" stroke-opacity="0.9" stroke-miterlimit="10" stroke-width="1.5" stroke-dasharray=""/></g></g><g><g class="dcg-svg-axis-value"><text fill="none" stroke="#ffffff" font-family="Arial" font-size="14px" font-style="normal" font-weight="normal" text-decoration="normal" x="40.009597799535186" y="791.0115842134394" text-anchor="middle" stroke-miterlimit="2" stroke-width="3" stroke-dasharray="">0</text><text fill="#000000" stroke="none" font-family="Arial" font-size="14px" font-style="normal" font-weight="normal" text-decoration="normal" x="40.009597799535186" y="791.0115842134394" text-anchor="middle">0</text></g><g class="dcg-svg-axis-value"><text fill="none" stroke="#ffffff" font-family="Arial" font-size="14px" font-style="normal" font-weight="normal" text-decoration="normal" x="229.60714680324844" y="791.0115842134394" text-anchor="middle" stroke-miterlimit="2" stroke-width="3" stroke-dasharray="">5</text><text fill="#000000" stroke="none" font-family="Arial" font-size="14px" font-style="normal" font-weight="normal" text-decoration="normal" x="229.60714680324844" y="791.0115842134394" text-anchor="middle">5</text></g><g class="dcg-svg-axis-value"><text fill="none" stroke="#ffffff" font-family="Arial" font-size="14px" font-style="normal" font-weight="normal" text-decoration="normal" x="410.3130291561896" y="791.0115842134394" text-anchor="middle" stroke-miterlimit="2" stroke-width="3" stroke-dasharray="">10</text><text fill="#000000" stroke="none" font-family="Arial" font-size="14px" font-style="normal" font-weight="normal" text-decoration="normal" x="410.3130291561896" y="791.0115842134394" text-anchor="middle">10</text></g><g class="dcg-svg-axis-value"><text fill="none" stroke="#ffffff" font-family="Arial" font-size="14px" font-style="normal" font-weight="normal" text-decoration="normal" x="591.0189115091308" y="791.0115842134394" text-anchor="middle" stroke-miterlimit="2" stroke-width="3" stroke-dasharray="">15</text><text fill="#000000" stroke="none" font-family="Arial" font-size="14px" font-style="normal" font-weight="normal" text-decoration="normal" x="591.0189115091308" y="791.0115842134394" text-anchor="middle">15</text></g><g class="dcg-svg-axis-value"><text fill="none" stroke="#ffffff" font-family="Arial" font-size="14px" font-style="normal" font-weight="normal" text-decoration="normal" x="771.7247938620719" y="791.0115842134394" text-anchor="middle" stroke-miterlimit="2" stroke-width="3" stroke-dasharray="">20</text><text fill="#000000" stroke="none" font-family="Arial" font-size="14px" font-style="normal" font-weight="normal" text-decoration="normal" x="771.7247938620719" y="791.0115842134394" text-anchor="middle">20</text></g><g class="dcg-svg-axis-value"><text fill="none" stroke="#ffffff" font-family="Arial" font-size="14px" font-style="normal" font-weight="normal" text-decoration="normal" x="952.4306762150131" y="791.0115842134394" text-anchor="middle" stroke-miterlimit="2" stroke-width="3" stroke-dasharray="">25</text><text fill="#000000" stroke="none" font-family="Arial" font-size="14px" font-style="normal" font-weight="normal" text-decoration="normal" x="952.4306762150131" y="791.0115842134394" text-anchor="middle">25</text></g><g class="dcg-svg-axis-value"><text fill="none" stroke="#ffffff" font-family="Arial" font-size="14px" font-style="normal" font-weight="normal" text-decoration="normal" x="1133.1365585679544" y="791.0115842134394" text-anchor="middle" stroke-miterlimit="2" stroke-width="3" stroke-dasharray="">30</text><text fill="#000000" stroke="none" font-family="Arial" font-size="14px" font-style="normal" font-weight="normal" text-decoration="normal" x="1133.1365585679544" y="791.0115842134394" text-anchor="middle">30</text></g><g class="dcg-svg-axis-value"><text fill="none" stroke="#ffffff" font-family="Arial" font-size="14px" font-style="normal" font-weight="normal" text-decoration="normal" x="36.11793114876309" y="654.4314048187597" text-anchor="middle" stroke-miterlimit="2" stroke-width="3" stroke-dasharray="">10</text><text fill="#000000" stroke="none" font-family="Arial" font-size="14px" font-style="normal" font-weight="normal" text-decoration="normal" x="36.11793114876309" y="654.4314048187597" text-anchor="middle">10</text></g><g class="dcg-svg-axis-value"><text fill="none" stroke="#ffffff" font-family="Arial" font-size="14px" font-style="normal" font-weight="normal" text-decoration="normal" x="36.11793114876309" y="529.85122542408" text-anchor="middle" stroke-miterlimit="2" stroke-width="3" stroke-dasharray="">20</text><text fill="#000000" stroke="none" font-family="Arial" font-size="14px" font-style="normal" font-weight="normal" text-decoration="normal" x="36.11793114876309" y="529.85122542408" text-anchor="middle">20</text></g><g class="dcg-svg-axis-value"><text fill="none" stroke="#ffffff" font-family="Arial" font-size="14px" font-style="normal" font-weight="normal" text-decoration="normal" x="36.11793114876309" y="405.2710460294002" text-anchor="middle" stroke-miterlimit="2" stroke-width="3" stroke-dasharray="">30</text><text fill="#000000" stroke="none" font-family="Arial" font-size="14px" font-style="normal" font-weight="normal" text-decoration="normal" x="36.11793114876309" y="405.2710460294002" text-anchor="middle">30</text></g><g class="dcg-svg-axis-value"><text fill="none" stroke="#ffffff" font-family="Arial" font-size="14px" font-style="normal" font-weight="normal" text-decoration="normal" x="36.11793114876309" y="280.6908666347205" text-anchor="middle" stroke-miterlimit="2" stroke-width="3" stroke-dasharray="">40</text><text fill="#000000" stroke="none" font-family="Arial" font-size="14px" font-style="normal" font-weight="normal" text-decoration="normal" x="36.11793114876309" y="280.6908666347205" text-anchor="middle">40</text></g><g class="dcg-svg-axis-value"><text fill="none" stroke="#ffffff" font-family="Arial" font-size="14px" font-style="normal" font-weight="normal" text-decoration="normal" x="36.11793114876309" y="156.11068724004076" text-anchor="middle" stroke-miterlimit="2" stroke-width="3" stroke-dasharray="">50</text><text fill="#000000" stroke="none" font-family="Arial" font-size="14px" font-style="normal" font-weight="normal" text-decoration="normal" x="36.11793114876309" y="156.11068724004076" text-anchor="middle">50</text></g><g class="dcg-svg-axis-value"><text fill="none" stroke="#ffffff" font-family="Arial" font-size="14px" font-style="normal" font-weight="normal" text-decoration="normal" x="36.11793114876309" y="31.530507845361065" text-anchor="middle" stroke-miterlimit="2" stroke-width="3" stroke-dasharray="">60</text><text fill="#000000" stroke="none" font-family="Arial" font-size="14px" font-style="normal" font-weight="normal" text-decoration="normal" x="36.11793114876309" y="31.530507845361065" text-anchor="middle">60</text></g></g></g></g><g id="expressions-bcad1e58"><g id="sketch-bcad1e58"><title>Expression 1</title><path fill="#388c46" stroke="none" paint-order="stroke fill markers" d="" fill-opacity="0.4"/><g><path fill="none" stroke="#388c46" class="dcg-svg-curve" paint-order="fill stroke markers" d=" M -2.1316282072803006e-14 729.7699692985509 L 10.3994979488071 726.1852179246399 M 17.01736027986618 723.9040125048784 L 27.4168582286733 720.3192611309674 M 34.03472055973238 718.038055711206 L 44.4342185085395 714.453304337295 M 51.05208083959858 712.1720989175335 L 61.451578788405705 708.5873475436225 M 68.06944111946478 706.306142123861 L 78.46893906827191 702.72139074995 M 85.08680139933098 700.4401853301886 L 95.4862993481381 696.8554339562776 M 102.10416167919718 694.5742285365161 L 112.5036596280043 690.9894771626051 M 119.12152195906337 688.7082717428436 L 129.52101990787048 685.1235203689326 M 136.13888223892957 682.8423149491712 L 146.5383801877367 679.2575635752602 M 153.15624251879578 676.9763581554987 L 163.5557404676029 673.3916067815877 M 170.173602798662 671.1104013618262 L 180.5731007474691 667.5256499879152 M 187.1909630785282 665.2444445681538 L 197.59046102733532 661.6596931942428 M 204.2083233583944 659.3784877744813 L 214.60782130720153 655.7937364005703 M 221.22568363826062 653.5125309808088 L 231.62518158706774 649.9277796068978 M 238.24304391812683 647.6465741871364 L 248.64254186693395 644.0618228132254 M 255.26040419799304 641.7806173934639 L 265.65990214680016 638.1958660195529 M 272.27776447785925 635.9146605997914 L 282.67726242666635 632.3299092258804 M 289.29512475772543 630.048703806119 L 299.6946227065325 626.463952432208 M 306.3124850375916 624.1827470124465 L 316.7119829863987 620.5979956385355 M 323.3298453174578 618.316790218774 L 333.7293432662649 614.732038844863 M 340.347205597324 612.4508334251016 L 350.7467035461311 608.8660820511906 M 357.36456587719016 606.5848766314291 L 367.76406382599725 603.0001252575181 M 374.38192615705634 600.7189198377566 L 384.7814241058635 597.1341684638456 M 391.3992864369226 594.8529630440842 L 401.7987843857297 591.2682116701732 M 408.41664671678876 588.9870062504117 L 418.81614466559586 585.4022548765007 M 425.43400699665494 583.1210494567392 L 435.83350494546204 579.5362980828282 M 442.4513672765211 577.2550926630668 L 452.8508652253282 573.6703412891558 M 459.4687275563873 571.3891358693943 L 469.8682255051944 567.8043844954833 M 476.4860878362535 565.5231790757218 L 486.8855857850606 561.9384277018108 M 493.50344811611967 559.6572222820494 L 503.9029460649268 556.0724709081384 M 510.5208083959859 553.7912654883769 L 520.9203063447931 550.2065141144659 M 527.5381686758521 547.9253086947044 L 537.9376666246593 544.3405573207934 M 544.5555289557184 542.059351901032 L 554.9550269045255 538.474600527121 M 561.5728892355846 536.1933951073595 L 571.9723871843918 532.6086437334485 M 578.5902495154509 530.327438313687 L 588.989747464258 526.742686939776 M 595.6076097953171 524.4614815200146 L 606.0071077441243 520.8767301461036 M 612.6249700751833 518.5955247263421 L 623.0244680239905 515.0107733524311 M 629.6423303550496 512.7295679326696 L 640.0418283038567 509.1448165587587 M 646.6596906349158 506.86361113899716 L 657.059188583723 503.2788597650862 M 663.6770509147821 500.9976543453247 L 674.0765488635892 497.41290297141376 M 680.6944111946483 495.1316975516522 L 691.0939091434554 491.5469461777413 M 697.7117714745145 489.26574075797976 L 708.1112694233217 485.6809893840688 M 714.7291317543808 483.3997839643073 L 725.1286297031879 479.8150325903963 M 731.746492034247 477.53382717063477 L 742.1459899830542 473.94907579672383 M 748.7638523141133 471.6678703769623 L 759.1633502629204 468.08311900305137 M 765.7812125939795 465.80191358328983 L 776.1807105427866 462.2171622093789 M 782.7985728738457 459.93595678961736 L 793.1980708226529 456.3512054157064 M 799.815933153712 454.06999999594484 L 810.2154311025191 450.4852486220339 M 816.8332934335782 448.2040432022724 L 827.2327913823854 444.61929182836144 M 833.8506537134444 442.3380864085999 L 844.2501516622516 438.7533350346889 M 850.8680139933107 436.4721296149274 L 861.2675119421178 432.88737824101645 M 867.8853742731769 430.6061728212549 L 878.2848722219841 427.021421447344 M 884.9027345530432 424.74021602758245 L 895.3022325018503 421.1554646536715 M 901.9200948329094 418.87425923391 L 912.3195927817164 415.28950785999905 M 918.9374551127755 413.0083024402375 L 929.3369530615826 409.4235510663265 M 935.9548153926416 407.142345646565 L 946.3543133414487 403.55759427265406 M 952.9721756725078 401.2763888528925 L 963.3716736213148 397.6916374789816 M 969.9895359523739 395.41043205922006 L 980.389033901181 391.82568068530907 M 987.0068962322401 389.54447526554753 L 997.4063941810472 385.9597238916366 M 1004.0242565121063 383.67851847187507 L 1014.4237544609134 380.09376709796413 M 1021.0416167919725 377.8125616782026 L 1031.4411147407795 374.22781030429167 M 1038.0589770718386 371.94660488453013 L 1048.4584750206457 368.36185351061914 M 1055.0763373517048 366.0806480908576 L 1065.4758353005118 362.4958967169467 M 1072.0936976315709 360.21469129718514 L 1082.493195580378 356.6299399232742 M 1089.111057911437 354.3487345035127 L 1099.510555860244 350.7639831296017 M 1106.1284181913031 348.48277770984015 L 1116.5279161401102 344.8980263359292 M 1123.1457784711693 342.6168209161677 L 1133.5452764199763 339.03206954225675 M 1140.1631387510354 336.7508641224952 L 1150.5626366998424 333.1661127485843 M 1157.1804990309015 330.88490732882275 L 1167.5799969797085 327.30015595491176 M 1174.1978593107676 325.0189505351502 L 1184.597357259575 321.4341991612393 M 1191.215219590634 319.15299374147776 L 1200 316.12484240215343" stroke-linecap="round" stroke-linejoin="round" stroke-miterlimit="10" stroke-width="2.5" stroke-dasharray=""/></g></g><g id="sketch-bcad1e58"><title>Expression 2</title><path fill="#c74440" stroke="none" paint-order="stroke fill markers" d="" fill-opacity="0.4"/><g><path fill="none" stroke="#c74440" class="dcg-svg-curve" paint-order="fill stroke markers" d=" M -5.273437500000021 772.550505685642 L -5.273437500000021 772.550505685642 L 18.457031249999982 768.600118392214 L 42.18749999999998 764.1126287957997 L 66.21093749999997 759.0226485198905 L 90.23437499999999 753.3822222928641 L 114.55078124999999 747.1124543643369 L 138.86718749999997 740.2787331108179 L 163.47656249999997 732.7884916823047 L 188.37890624999997 724.621100635061 L 213.28124999999994 715.8622503378439 L 238.47656249999997 706.3984170454271 L 263.96484374999994 696.2084801368427 L 289.74609375 685.2710734025068 L 315.8203125 673.5645850442197 L 342.1875 661.067157675166 L 368.84765625 647.7566883199138 L 395.80078125 633.6108284144159 L 423.046875 618.6069838060089 L 450.5859375 602.7223147534135 L 478.7109375 585.753084626494 L 507.12890625 567.84081427269 L 535.83984375 548.9616815962586 L 565.13671875 528.8868180653698 L 594.7265625 507.78025681725427 L 624.90234375 485.3956925283528 L 655.6640625 461.68253394378877 L 686.71875 436.8280632564322 L 718.3593750000001 410.5586329434859 L 750.5859375000001 382.82119586391457 L 783.3984375 353.5617225222189 L 816.5039062500001 323.00032212292797 L 849.609375 291.3936147114696 L 882.71484375 258.74160028784365 L 915.8203125 225.04427885205018 L 948.92578125 190.30165040408906 L 982.32421875 154.19234136680575 L 1015.72265625 117.01914244541808 L 1049.12109375 78.78205363992606 L 1082.8125 39.13162240808947 L 1116.50390625 -1.601445305532252 L 1121.2559064401332 -7.5" stroke-linecap="round" stroke-linejoin="round" stroke-miterlimit="10" stroke-width="4.5" stroke-dasharray=""/></g></g><g id="sketch-bcad1e58"><title>Expression 3</title><path fill="#2d70b3" stroke="none" paint-order="stroke fill markers" d="" fill-opacity="0.4"/><g><path fill="none" stroke="#2d70b3" class="dcg-svg-curve" paint-order="fill stroke markers" d=" M 4.955746202997489 805.5 L 14.012130606695726 799.2564512068495 M 19.77528431814006 795.2832837930265 L 28.831668721838295 789.039734999876 M 34.59482243328263 785.066567586053 L 43.65120683698087 778.8230187929025 M 49.4143605484252 774.8498513790795 L 58.47074495212344 768.606302585929 M 64.23389866356777 764.633135172106 L 73.290283067266 758.3895863789555 M 79.05343677871033 754.4164189651325 L 88.10982118240857 748.1728701719819 M 93.8729748938529 744.1997027581589 L 102.92935929755113 737.9561539650084 M 108.69251300899546 733.9829865511854 L 117.7488974126937 727.7394377580349 M 123.51205112413803 723.7662703442119 L 132.56843552783627 717.5227215510613 M 138.33158923928062 713.5495541372383 L 147.38797364297886 707.3060053440877 M 153.1511273544232 703.3328379302646 L 162.20751175812146 697.0892891371141 M 167.9706654695658 693.116121723291 L 177.02704987326405 686.8725729301404 M 182.79020358470837 682.8994055163174 L 191.8465879884066 676.6558567231668 M 197.60974169985096 672.6826893093438 L 206.6661261035492 666.4391405161933 M 212.42927981499355 662.4659731023703 L 221.4856642186918 656.2224243092197 M 227.2488179301361 652.2492568953967 L 236.30520233383436 646.0057081022462 M 242.06835604527868 642.0325406884232 L 251.12474044897692 635.7889918952726 M 256.88789416042124 631.8158244814496 L 265.9442785641195 625.572275688299 M 271.7074322755638 621.599108274476 L 280.76381667926205 615.3555594813254 M 286.52697039070637 611.3823920675023 L 295.5833547944046 605.1388432743518 M 301.34650850584893 601.1656758605287 L 310.4028929095472 594.9221270673781 M 316.1660466209915 590.9489596535551 L 325.22243102468974 584.7054108604045 M 330.98558473613406 580.7322434465815 L 340.0419691398323 574.488694653431 M 345.8051228512766 570.515527239608 L 354.86150725497487 564.2719784464575 M 360.6246609664192 560.2988110326345 L 369.68104537011743 554.0552622394839 M 375.44419908156175 550.0820948256609 L 384.50058348526 543.8385460325103 M 390.2637371967043 539.8653786186873 L 399.32012160040256 533.6218298255367 M 405.0832753118469 529.6486624117136 L 414.1396597155451 523.4051136185632 M 419.90281342698944 519.4319462047401 L 428.9591978306877 513.1883974115896 M 434.722351542132 509.2152299977665 L 443.77873594583025 502.971681204616 M 449.54188965727457 498.99851379079297 L 458.5982740609728 492.75496499764245 M 464.36142777241713 488.7817975838194 L 473.4178121761154 482.5382487906689 M 479.1809658875597 478.56508137684585 L 488.23735029125794 472.32153258369533 M 494.00050400270226 468.3483651698723 L 503.0568884064005 462.10481637672177 M 508.8200421178448 458.13164896289874 L 517.8764265215431 451.8881001697482 M 523.6395802329874 447.9149327559252 L 532.6959646366856 441.67138396277466 M 538.45911834813 437.6982165489516 L 547.5155027518282 431.4546677558011 M 553.2786564632726 427.48150034197806 L 562.3350408669708 421.23795154882754 M 568.0981945784151 417.26478413500445 L 577.1545789821133 411.0212353418539 M 582.9177326935577 407.0480679280309 L 591.9741170972559 400.80451913488037 M 597.7372708087003 396.83135172105733 L 606.7936552123984 390.5878029279068 M 612.5568089238428 386.6146355140837 L 621.613193327541 380.3710867209332 M 627.3763470389854 376.3979193071101 L 636.4327314426836 370.1543705139596 M 642.195885154128 366.18120310013654 L 651.2522695578261 359.937654306986 M 657.0154232692705 355.964486893163 L 666.0718076729687 349.72093810001246 M 671.8349613844131 345.74777068618937 L 680.8913457881113 339.50422189303885 M 686.6544994995556 335.53105447921575 L 695.7108839032538 329.28750568606523 M 701.4740376146982 325.3143382722422 L 710.5304220183964 319.0707894790917 M 716.2935757298408 315.09762206526864 L 725.349960133539 308.8540732721181 M 731.1131138449833 304.880905858295 L 740.1694982486815 298.6373570651445 M 745.9326519601259 294.6641896513214 L 754.9890363638241 288.4206408581709 M 760.7521900752685 284.4474734443478 L 769.8085744789666 278.20392465119727 M 775.571728190411 274.23075723737423 L 784.6281125941092 267.9872084442237 M 790.3912663055536 264.0140410304007 L 799.4476507092518 257.77049223725015 M 805.2108044206961 253.7973248234271 L 814.2671888243943 247.55377603027657 M 820.0303425358387 243.5806086164535 L 829.0867269395369 237.33705982330298 M 834.8498806509813 233.36389240947992 L 843.9062650546795 227.1203436163294 M 849.6694187661238 223.14717620250633 L 858.725803169822 216.9036274093558 M 864.4889568812664 212.93045999553274 L 873.5453412849646 206.68691120238222 M 879.308494996409 202.71374378855916 L 888.3648794001072 196.47019499540863 M 894.1280331115515 192.49702758158557 L 903.1844175152497 186.25347878843505 M 908.9475712266941 182.28031137461198 L 918.0039556303923 176.03676258146146 M 923.7671093418367 172.0635951676384 L 932.8234937455348 165.82004637448787 M 938.5866474569792 161.8468789606648 L 947.6430318606774 155.6033301675143 M 953.4061855721218 151.63016275369122 L 962.46256997582 145.3866139605407 M 968.2257236872643 141.41344654671764 L 977.2821080909625 135.1698977535671 M 983.0452618024069 131.19673033974405 L 992.1016462061051 124.95318154659351 M 997.8647999175495 120.98001413277045 L 1006.9211843212477 114.73646533961991 M 1012.684338032692 110.76329792579685 L 1021.7407224363903 104.51974913264633 M 1027.5038761478347 100.54658171882326 L 1036.560260551533 94.30303292567272 M 1042.3234142629774 90.32986551184966 L 1051.3797986666757 84.08631671869912 M 1057.14295237812 80.11314930487606 L 1066.1993367818184 73.86960051172554 M 1071.9624904932627 69.89643309790247 L 1081.018874896961 63.65288430475194 M 1086.7820286084054 59.67971689092888 L 1095.8384130121037 53.43616809777835 M 1101.601566723548 49.463000683955286 L 1110.6579511272462 43.219451890804756 M 1116.4211048386906 39.24628447698169 L 1125.4774892423886 33.00273568383116 M 1131.240642953833 29.029568270008095 L 1140.2970273575313 22.78601947685756 M 1146.0601810689757 18.812852063034494 L 1155.1165654726738 12.569303269883962 M 1160.8797191841181 8.596135856060897 L 1169.9361035878162 2.3525870629103647 M 1175.6992572992606 -1.6205803509127024 L 1181.3264281229974 -5.5" stroke-linecap="round" stroke-linejoin="round" stroke-miterlimit="10" stroke-width="2.5" stroke-dasharray=""/></g></g><g id="sketch-bcad1e58"><title>Expression 4</title><path fill="#6042a6" stroke="none" paint-order="stroke fill markers" d="" fill-opacity="0.4"/><g><path fill="none" stroke="#6042a6" class="dcg-svg-curve" paint-order="fill stroke markers" d=" M -2.1316282072803006e-14 409.89128342062594 L 10.840173163522243 408.0229564190409 M 17.738465176672776 406.83402105439586 L 28.578638340195038 404.9656940528108 M 35.476930353345566 403.7767586881658 L 46.31710351686783 401.90843168658074 M 53.21539553001836 400.7194963219357 L 64.05556869354062 398.85116932035066 M 70.95386070669116 397.66223395570563 L 81.79403387021343 395.7939069541206 M 88.69232588336395 394.60497158947555 L 99.53249904688622 392.7366445878905 M 106.43079106003674 391.5477092232455 L 117.270964223559 389.67938222166043 M 124.16925623670953 388.4904468570154 L 135.0094294002318 386.62211985543036 M 141.90772141338232 385.4331844907853 L 152.74789457690457 383.5648574892003 M 159.6461865900551 382.37592212455525 L 170.48635975357735 380.5075951229702 M 177.38465176672787 379.31865975832517 L 188.22482493025012 377.4503327567401 M 195.12311694340065 376.2613973920951 L 205.9632901069229 374.39307039051005 M 212.86158212007342 373.204135025865 L 223.70175528359567 371.33580802427997 M 230.6000472967462 370.14687265963494 L 241.44022046026845 368.2785456580499 M 248.33851247341897 367.08961029340486 L 259.1786856369412 365.2212832918198 M 266.07697765009175 364.0323479271748 L 276.917150813614 362.16402092558974 M 283.8154428267645 360.9750855609447 L 294.6556159902868 359.10675855935966 M 301.5539080034373 357.91782319471463 L 312.39408116695955 356.0494961931296 M 319.2923731801101 354.86056082848455 L 330.1325463436323 352.9922338268995 M 337.03083835678285 351.8032984622545 L 347.8710115203051 349.93497146066943 M 354.7693035334556 348.7460360960244 L 365.6094766969779 346.87770909443935 M 372.5077687101284 345.6887737297943 L 383.34794187365065 343.8204467282093 M 390.2462338868012 342.63151136356424 L 401.08640705032343 340.7631843619792 M 407.98469906347395 339.57424899733417 L 418.8248722269962 337.7059219957491 M 425.72316424014673 336.5169866311041 L 436.563337403669 334.64865962951905 M 443.4616294168195 333.459724264874 L 454.30180258034176 331.59139726328897 M 461.2000945934923 330.40246189864394 L 472.04026775701453 328.5341348970589 M 478.93855977016506 327.34519953241386 L 489.7787329336873 325.4768725308288 M 496.67702494683783 324.2879371661838 L 507.5171981103601 322.41961016459874 M 514.4154901235106 321.2306747999537 L 525.2556632870329 319.36234779836866 M 532.1539553001835 318.1734124337236 L 542.9941284637058 316.3050854321386 M 549.8924204768564 315.11615006749355 L 560.7325936403787 313.2478230659085 M 567.6308856535293 312.0588877012635 L 578.4710588170516 310.19056069967843 M 585.3693508302022 309.0016253350334 L 596.2095239937245 307.13329833344835 M 603.107816006875 305.9443629688033 L 613.9479891703974 304.0760359672183 M 620.846281183548 302.88710060257324 L 631.6864543470703 301.0187736009882 M 638.5847463602208 299.82983823634316 L 649.4249195237431 297.9615112347581 M 656.3232115368937 296.7725758701131 L 667.163384700416 294.90424886852804 M 674.0616767135666 293.715313503883 L 684.9018498770889 291.84698650229797 M 691.8001418902395 290.65805113765293 L 702.6403150537617 288.7897241360679 M 709.5386070669123 287.60078877142286 L 720.3787802304346 285.7324617698378 M 727.277072243585 284.5435264051928 L 738.1172454071074 282.67519940360773 M 745.0155374202579 281.4862640389627 L 755.8557105837801 279.61793703737766 M 762.7540025969306 278.4290016727326 L 773.5941757604528 276.5606746711476 M 780.4924677736034 275.37173930650255 L 791.3326409371257 273.5034123049175 M 798.2309329502762 272.31447694027247 L 809.0711061137985 270.4461499386874 M 815.969398126949 269.2572145740424 L 826.8095712904712 267.38888757245735 M 833.7078633036217 266.1999522078123 L 844.5480364671439 264.33162520622733 M 851.4463284802945 263.1426898415823 L 862.2865016438168 261.2743628399973 M 869.1847936569673 260.0854274753523 L 880.0249668204895 258.2171004737673 M 886.92325883364 257.02816510912226 L 897.7634319971623 255.15983810753724 M 904.6617240103128 253.97090274289224 L 915.5018971738351 252.10257574130722 M 922.4001891869856 250.91364037666222 L 933.2403623505079 249.0453133750772 M 940.1386543636584 247.8563780104322 L 950.9788275271806 245.98805100884718 M 957.8771195403311 244.79911564420217 L 968.7172927038534 242.93078864261716 M 975.6155847170039 241.74185327797215 L 986.4557578805262 239.87352627638714 M 993.3540498936767 238.68459091174213 L 1004.194223057199 236.81626391015712 M 1011.0925150703495 235.6273285455121 L 1021.9326882338718 233.7590015439271 M 1028.8309802470224 232.5700661792821 L 1039.6711534105445 230.70173917769708 M 1046.569445423695 229.51280381305207 L 1057.4096185872172 227.64447681146706 M 1064.3079106003677 226.45554144682205 L 1075.1480837638899 224.58721444523704 M 1082.0463757770403 223.39827908059203 L 1092.8865489405625 221.52995207900702 M 1099.784840953713 220.341016714362 L 1110.6250141172352 218.472689712777 M 1117.5233061303857 217.283754348132 L 1128.363479293908 215.41542734654698 M 1135.2617713070586 214.22649198190197 L 1146.101944470581 212.35816498031696 M 1153.0002364837314 211.16922961567192 L 1163.8404096472539 209.3009026140869 M 1170.7387016604043 208.11196724944188 L 1181.5788748239265 206.24364024785686 M 1188.4771668370772 205.05470488321183 L 1199.3173400005994 203.1863778816268" stroke-linecap="round" stroke-linejoin="round" stroke-miterlimit="10" stroke-width="2.5" stroke-dasharray=""/></g></g></g><g id="labels-bcad1e58"/><g id="labels-bcad1e58"/></g></svg>